<svg id="svg" xmlns="http://www.w3.org/2000/svg" xmlns:xlink="http://www.w3.org/1999/xlink" width="400" height="350.5285412262157" viewBox="0, 0, 400,350.5285412262157"><g id="svgg"><path id="path0" d="M189.658 22.112 C 163.321 23.428,138.148 28.238,112.358 36.882 C 107.184 38.616,105.661 39.173,99.387 41.625 C 88.085 46.043,73.375 53.126,66.696 57.368 L 64.855 58.536 64.855 155.415 L 64.855 252.293 67.397 253.702 C 68.795 254.476,71.595 256.053,73.620 257.205 C 75.644 258.358,82.270 262.115,88.344 265.555 C 98.734 271.439,102.194 273.396,114.899 280.572 C 121.426 284.258,130.544 289.417,135.320 292.126 C 137.344 293.275,141.446 295.587,144.435 297.265 C 147.423 298.942,154.128 302.729,159.334 305.678 C 164.540 308.628,170.535 312.024,172.656 313.225 C 181.029 317.968,187.436 321.604,192.375 324.417 C 195.219 326.037,198.119 327.635,198.820 327.969 L 200.095 328.575 203.520 326.689 C 205.403 325.652,207.354 324.563,207.854 324.269 C 208.355 323.976,210.421 322.809,212.445 321.677 C 214.470 320.544,216.994 319.102,218.054 318.473 C 219.115 317.844,224.636 314.695,230.324 311.475 C 236.012 308.255,241.218 305.301,241.893 304.910 C 243.423 304.024,244.812 303.235,248.379 301.228 C 249.921 300.359,254.654 297.674,258.896 295.260 C 263.138 292.847,268.975 289.536,271.867 287.902 C 274.759 286.269,278.703 284.021,280.631 282.906 C 283.664 281.153,295.037 274.691,298.685 272.649 C 299.360 272.271,302.752 270.345,306.223 268.368 C 309.693 266.391,316.635 262.450,321.648 259.610 C 334.013 252.604,335.629 251.653,335.928 251.212 C 336.418 250.490,336.249 57.272,335.758 56.873 C 334.602 55.933,320.104 48.607,314.461 46.110 C 312.436 45.215,310.307 44.267,309.728 44.004 C 275.115 28.283,230.163 20.087,189.658 22.112 M221.735 29.415 C 223.471 29.612,227.493 30.024,230.675 30.331 C 236.573 30.900,247.948 32.569,252.060 33.468 C 253.313 33.742,255.679 34.229,257.318 34.550 C 276.897 38.389,302.765 47.682,323.751 58.417 L 328.659 60.927 328.751 73.233 L 328.843 85.539 257.673 85.539 L 186.503 85.539 186.503 84.390 C 186.503 83.336,184.562 81.301,163.197 59.949 C 150.378 47.138,140.006 36.550,140.147 36.420 C 140.545 36.051,146.198 34.706,147.348 34.706 C 148.375 34.706,149.564 35.727,160.035 45.602 C 162.197 47.641,167.670 52.716,181.916 65.888 C 184.117 67.923,187.194 70.786,188.752 72.250 C 196.536 79.560,198.944 81.639,199.158 81.232 C 199.281 80.998,199.481 79.071,199.603 76.950 C 199.725 74.829,199.921 71.516,200.039 69.588 L 200.253 66.082 187.857 53.992 C 166.310 32.977,165.105 31.774,165.378 31.531 C 165.524 31.401,167.379 31.109,169.500 30.882 C 171.621 30.655,173.909 30.392,174.584 30.296 C 175.683 30.140,176.088 30.350,178.485 32.326 C 179.955 33.539,183.564 36.503,186.505 38.913 C 189.445 41.323,193.435 44.608,195.372 46.211 C 199.469 49.603,199.297 49.679,199.603 44.347 C 199.725 42.226,199.924 38.913,200.046 36.985 L 200.268 33.479 197.592 31.239 C 196.121 30.007,194.917 28.919,194.917 28.822 C 194.917 28.518,218.411 29.037,221.735 29.415 M127.762 44.071 C 135.064 51.122,138.860 54.752,146.012 61.527 C 150.061 65.361,154.557 69.637,156.004 71.027 C 157.450 72.417,159.422 74.296,160.386 75.204 C 168.207 82.565,170.727 85.014,170.727 85.257 C 170.727 85.412,167.065 85.539,162.589 85.539 L 154.451 85.539 133.842 64.950 C 122.508 53.625,113.234 44.270,113.234 44.160 C 113.234 43.927,122.977 40.695,123.730 40.678 C 124.008 40.671,125.822 42.198,127.762 44.071 M102.803 53.536 C 104.973 55.602,108.644 59.112,110.961 61.336 C 115.555 65.747,117.526 67.623,128.309 77.834 C 132.261 81.578,135.621 84.843,135.776 85.090 C 136.000 85.450,134.569 85.539,128.564 85.539 L 121.073 85.539 105.234 69.814 C 89.347 54.042,88.875 53.527,90.009 53.182 C 90.346 53.079,92.200 52.284,94.128 51.416 C 98.729 49.342,98.283 49.233,102.803 53.536 M77.662 61.964 C 78.631 62.879,84.214 68.203,90.068 73.795 C 95.921 79.387,101.004 84.168,101.363 84.420 C 102.842 85.458,101.793 85.539,86.941 85.539 L 71.867 85.539 71.867 73.999 L 71.867 62.459 73.707 61.386 C 75.985 60.058,75.581 60.000,77.662 61.964 M159.188 100.789 C 161.062 104.483,164.253 111.601,167.044 118.317 C 171.294 128.542,172.625 130.441,175.915 130.967 C 179.929 131.609,177.162 131.989,168.729 131.953 C 160.195 131.917,157.356 131.507,161.802 130.951 C 165.797 130.452,165.873 129.557,162.598 121.560 L 161.485 118.843 154.395 118.843 L 147.305 118.843 146.263 121.385 C 143.281 128.656,143.514 129.903,148.045 130.929 C 151.330 131.672,149.619 131.990,142.690 131.925 C 136.260 131.865,133.949 131.488,136.610 130.933 C 140.505 130.119,141.278 128.898,148.139 112.708 C 149.446 109.623,151.674 104.762,153.090 101.905 C 156.351 95.326,156.410 95.315,159.188 100.789 M206.310 97.911 C 207.853 98.388,209.625 98.988,210.248 99.245 C 211.329 99.689,211.435 99.659,212.544 98.585 C 214.669 96.525,214.820 96.819,215.129 103.622 C 215.395 109.481,214.982 110.200,213.278 106.838 C 207.451 95.338,192.813 95.526,188.172 107.161 C 181.085 124.930,203.177 139.595,214.109 124.379 C 215.370 122.624,216.046 122.389,216.232 123.643 C 216.371 124.583,213.204 128.054,210.803 129.591 C 201.173 135.757,186.498 132.120,181.663 122.367 L 180.368 119.756 180.368 115.005 C 180.368 102.002,192.880 93.758,206.310 97.911 M270.704 97.475 C 288.736 97.461,295.569 100.003,299.640 108.240 C 305.695 120.492,295.781 132.370,279.579 132.276 C 258.267 132.153,253.404 131.807,259.282 130.833 C 263.635 130.112,263.869 129.431,264.377 116.039 C 264.947 100.996,264.389 98.510,260.442 98.510 C 259.699 98.510,259.284 97.965,259.616 97.427 C 259.757 97.199,260.322 97.133,261.016 97.263 C 261.656 97.383,266.016 97.479,270.704 97.475 M245.234 97.975 C 251.946 99.259,255.187 104.149,252.908 109.553 C 251.250 113.486,245.770 115.410,236.046 115.474 L 231.425 115.504 231.177 118.480 C 230.462 127.066,231.388 130.091,234.916 130.694 C 238.324 131.276,236.014 131.642,228.365 131.733 C 220.172 131.831,218.804 131.570,222.220 130.561 C 224.212 129.973,224.967 129.229,225.246 127.579 C 225.435 126.458,225.583 108.367,225.452 102.318 C 225.406 100.208,224.611 99.254,222.440 98.703 C 221.493 98.463,220.659 98.084,220.585 97.862 C 220.368 97.211,241.754 97.309,245.234 97.975 M115.142 110.409 C 122.070 117.340,127.867 122.931,128.024 122.834 C 128.791 122.360,128.338 103.976,127.520 102.354 C 126.606 100.544,124.589 99.229,122.699 99.212 C 121.334 99.199,120.290 98.700,120.723 98.266 C 121.132 97.856,136.875 97.910,137.000 98.322 C 137.056 98.507,136.251 98.829,135.210 99.037 C 130.323 100.013,130.293 100.107,130.016 115.688 C 129.891 122.726,129.771 129.244,129.750 130.173 C 129.687 132.903,129.157 132.483,115.359 118.755 C 108.236 111.670,102.295 105.872,102.157 105.872 C 101.786 105.872,102.289 122.463,102.746 125.329 C 103.289 128.731,104.855 130.319,108.059 130.716 C 109.042 130.838,109.912 131.135,109.992 131.376 C 110.174 131.925,93.422 132.022,93.083 131.474 C 92.858 131.111,93.571 130.906,95.982 130.641 C 97.945 130.424,99.145 129.605,99.803 128.030 C 100.598 126.128,100.335 105.853,99.496 104.294 C 97.943 101.413,95.630 99.322,93.518 98.890 C 90.539 98.281,92.209 97.809,97.343 97.809 L 102.545 97.809 115.142 110.409 M232.691 98.743 L 231.376 98.903 231.376 106.635 L 231.376 114.367 236.021 114.216 C 242.957 113.991,245.154 112.822,246.774 108.494 C 249.358 101.587,243.370 97.441,232.691 98.743 M271.119 99.257 C 270.028 100.644,269.361 126.346,270.368 128.187 C 272.971 132.943,284.717 131.926,289.730 126.512 C 297.989 117.592,294.692 103.932,283.291 99.832 C 280.737 98.914,271.724 98.488,271.119 99.257 M152.569 106.556 C 150.664 110.507,148.291 116.048,148.292 116.540 C 148.293 116.790,150.341 116.936,154.427 116.977 C 157.801 117.011,160.561 116.912,160.561 116.757 C 160.561 116.264,159.309 113.407,156.142 106.671 C 155.487 105.278,154.952 103.977,154.952 103.779 C 154.952 102.593,153.872 103.851,152.569 106.556 M96.407 147.681 C 96.407 150.446,96.500 151.142,96.827 150.815 C 98.425 149.217,99.003 150.468,99.227 156.004 C 99.332 158.606,99.547 161.012,99.703 161.350 C 99.944 161.869,99.806 161.963,98.811 161.963 L 97.634 161.964 97.754 156.880 C 97.839 153.294,97.759 151.797,97.483 151.797 C 96.684 151.797,96.349 153.787,96.464 157.844 L 96.582 161.963 95.449 161.963 L 94.317 161.963 94.573 160.298 C 94.926 158.006,94.896 146.227,94.535 145.077 C 94.279 144.262,94.347 144.124,95.061 144.007 C 96.358 143.795,96.407 143.929,96.407 147.681 M191.580 144.303 C 191.922 144.645,192.107 145.301,192.043 145.942 C 191.897 147.407,191.111 147.578,190.836 146.204 C 190.455 144.299,189.839 145.233,189.730 147.881 C 189.645 149.958,189.722 150.394,190.169 150.394 C 190.869 150.394,190.881 151.753,190.184 152.020 C 189.559 152.260,189.396 160.358,190.009 160.736 C 190.913 161.295,190.319 161.963,188.916 161.963 C 187.571 161.963,187.492 161.910,187.752 161.174 C 188.386 159.378,188.342 152.376,187.693 151.902 C 187.125 151.486,187.124 151.415,187.671 150.811 C 188.008 150.438,188.256 149.581,188.256 148.787 C 188.256 145.158,190.035 142.758,191.580 144.303 M225.755 144.412 C 226.224 145.289,226.221 146.783,225.749 147.075 C 225.542 147.203,225.199 146.824,224.969 146.216 C 224.332 144.528,223.849 145.136,223.734 147.769 C 223.651 149.652,223.746 150.237,224.172 150.476 C 224.864 150.863,224.874 151.758,224.189 152.020 C 223.564 152.260,223.401 160.358,224.014 160.736 C 224.919 161.295,224.324 161.963,222.921 161.963 C 221.576 161.963,221.497 161.910,221.757 161.174 C 222.332 159.546,222.344 152.631,221.774 152.060 C 221.315 151.602,221.311 151.444,221.742 150.875 C 222.015 150.514,222.245 149.667,222.252 148.992 C 222.292 145.221,224.584 142.224,225.755 144.412 M107.490 146.954 C 107.762 148.364,108.300 151.648,108.687 154.251 C 109.552 160.076,110.551 162.576,111.268 160.708 C 111.654 159.702,111.504 151.960,111.091 151.547 C 110.563 151.019,110.935 150.514,112.002 150.310 C 112.710 150.174,112.883 150.281,112.883 150.855 C 112.883 151.555,112.898 151.554,113.707 150.794 C 114.438 150.108,114.582 150.081,114.977 150.558 C 115.551 151.250,116.003 151.237,116.811 150.505 C 118.171 149.274,118.645 150.533,118.853 155.927 C 118.955 158.572,119.113 160.973,119.204 161.262 C 119.329 161.661,119.072 161.788,118.142 161.788 C 117.209 161.788,116.956 161.662,117.086 161.262 C 117.420 160.231,117.476 152.498,117.153 151.921 C 116.178 150.179,115.256 158.761,116.164 161.135 C 116.447 161.877,116.404 161.884,111.687 161.909 C 106.756 161.934,106.602 161.892,107.462 160.755 C 107.746 160.379,107.912 159.827,107.831 159.528 C 107.750 159.228,107.581 158.225,107.455 157.298 C 107.231 155.655,107.197 155.615,106.110 155.720 C 104.926 155.835,104.179 159.709,105.153 160.683 C 105.897 161.427,105.537 161.963,104.294 161.963 C 102.923 161.963,102.852 161.807,103.569 160.352 C 103.845 159.792,104.247 157.993,104.462 156.354 C 104.895 153.044,106.192 145.233,106.434 144.472 C 106.699 143.639,106.978 144.294,107.490 146.954 M131.288 145.837 C 131.288 147.589,130.591 148.107,130.072 146.742 C 129.847 146.150,129.847 145.524,130.072 144.932 C 130.591 143.566,131.288 144.085,131.288 145.837 M157.043 144.676 C 157.645 145.098,157.928 145.148,158.027 144.849 C 158.398 143.738,158.808 145.098,158.808 147.435 C 158.808 150.478,158.402 150.801,157.809 148.230 C 157.118 145.238,156.123 144.660,155.048 146.626 C 153.567 149.336,154.557 160.592,156.274 160.556 C 156.907 160.542,157.597 159.803,157.948 158.759 C 158.158 158.134,158.533 157.556,158.781 157.473 C 159.733 157.156,158.035 161.064,156.897 161.809 C 154.378 163.460,152.339 159.584,152.367 153.199 C 152.397 146.468,154.397 142.823,157.043 144.676 M208.889 144.584 C 211.790 146.084,211.235 152.937,208.151 153.699 L 206.836 154.024 206.836 157.249 C 206.836 159.689,206.964 160.581,207.362 160.911 C 208.279 161.672,207.939 161.963,206.135 161.963 C 204.441 161.963,203.740 161.350,204.733 160.736 C 204.948 160.603,205.083 157.701,205.083 153.199 C 205.083 148.697,204.948 145.795,204.733 145.662 C 203.985 145.199,204.416 144.475,205.521 144.338 C 207.688 144.069,207.927 144.086,208.889 144.584 M241.390 144.925 C 241.714 146.218,241.432 147.395,240.766 147.522 C 240.050 147.658,239.602 146.281,239.934 144.961 C 240.213 143.846,241.113 143.824,241.390 144.925 M261.926 152.269 C 262.018 158.311,262.170 160.597,262.506 161.002 C 263.175 161.808,262.727 161.917,259.060 161.841 C 255.006 161.757,254.864 161.677,254.864 159.465 C 254.864 157.588,255.178 156.769,256.512 155.166 C 257.130 154.424,257.326 153.815,257.249 152.887 C 257.116 151.301,256.480 151.228,256.330 152.782 C 256.194 154.199,255.100 154.234,254.935 152.826 C 254.819 151.831,256.028 150.044,256.818 150.044 C 258.333 150.044,258.720 151.248,258.720 155.961 C 258.720 160.495,259.058 161.745,260.107 161.096 C 260.596 160.794,260.611 145.963,260.123 145.662 C 259.215 145.101,259.900 144.277,261.400 144.125 C 261.688 144.096,261.837 146.398,261.926 152.269 M271.444 144.947 C 274.827 146.430,274.876 160.450,271.502 161.745 C 270.300 162.206,266.082 161.990,266.082 161.467 C 266.082 161.193,266.280 160.904,266.521 160.824 C 267.265 160.577,267.356 146.754,266.620 145.631 C 266.308 145.155,266.126 144.647,266.216 144.502 C 266.406 144.194,270.525 144.544,271.444 144.947 M292.025 152.080 C 292.025 158.568,292.122 160.205,292.539 160.757 C 293.317 161.785,293.198 161.963,291.732 161.963 C 290.065 161.963,289.804 161.723,290.459 160.787 C 291.261 159.642,291.204 147.024,290.391 145.864 C 289.844 145.083,289.848 145.004,290.458 144.559 C 291.983 143.443,292.025 143.641,292.025 152.080 M75.182 148.904 C 77.784 155.902,77.871 155.960,77.733 150.616 C 77.636 146.863,77.517 146.033,77.020 145.670 C 76.026 144.942,76.333 144.435,77.768 144.435 C 79.451 144.435,79.748 144.719,78.967 145.582 C 78.431 146.172,78.330 147.281,78.177 154.199 C 77.977 163.243,78.188 163.147,75.362 155.478 C 73.891 151.485,73.651 151.043,73.431 151.911 C 72.968 153.734,73.439 160.130,74.088 160.848 C 74.959 161.811,74.823 161.963,73.094 161.963 C 71.353 161.963,71.226 161.813,72.130 160.815 C 73.148 159.691,73.231 149.898,72.247 146.976 C 71.339 144.281,71.323 144.435,72.518 144.435 C 73.480 144.435,73.584 144.610,75.182 148.904 M206.836 149.167 C 206.836 153.005,207.077 153.526,208.118 151.938 C 208.873 150.785,208.982 146.909,208.283 146.066 C 207.139 144.688,206.836 145.338,206.836 149.167 M268.887 153.035 C 268.887 161.139,269.050 161.824,270.637 160.389 C 273.043 158.211,272.164 145.486,269.608 145.486 C 268.903 145.486,268.887 145.651,268.887 153.035 M93.096 150.402 C 94.196 150.820,94.188 151.374,93.076 151.797 C 92.216 152.124,92.200 152.198,92.205 155.907 C 92.211 159.910,92.423 160.722,93.367 160.360 C 94.106 160.076,94.126 160.688,93.402 161.412 C 91.630 163.184,90.798 161.449,90.798 155.987 C 90.798 151.974,90.414 150.602,89.921 152.848 C 89.645 154.105,89.312 154.171,88.602 153.111 C 87.663 151.709,87.292 158.542,88.164 161.174 C 88.402 161.894,88.315 161.963,87.178 161.963 C 85.919 161.963,85.227 161.496,85.884 161.090 C 86.422 160.757,86.351 152.047,85.805 151.502 C 85.458 151.155,85.476 150.999,85.893 150.736 C 86.728 150.208,87.642 150.339,87.642 150.987 C 87.642 151.503,87.708 151.492,88.147 150.900 C 88.572 150.326,88.762 150.287,89.355 150.649 C 90.239 151.188,91.262 150.052,91.715 148.031 L 92.010 146.713 92.125 148.395 C 92.221 149.802,92.379 150.129,93.096 150.402 M173.550 150.394 C 174.478 150.394,174.453 151.657,173.521 151.901 C 172.312 152.217,172.625 160.427,173.840 160.294 C 174.965 160.171,174.033 161.727,172.879 161.900 C 171.762 162.067,171.429 160.752,171.429 156.173 C 171.429 152.742,171.343 152.134,170.817 151.840 C 170.248 151.522,170.259 151.441,170.967 150.683 C 171.385 150.235,171.831 149.395,171.958 148.817 C 172.399 146.805,172.641 146.725,172.754 148.554 C 172.850 150.105,172.975 150.394,173.550 150.394 M328.501 150.500 C 329.415 150.739,329.392 151.797,328.473 151.797 C 327.791 151.797,327.765 151.976,327.859 156.091 C 327.948 159.956,328.019 160.375,328.571 160.283 C 329.274 160.165,329.389 160.918,328.764 161.543 C 327.080 163.227,326.235 161.566,326.176 156.451 C 326.139 153.307,325.998 151.994,325.674 151.794 C 325.325 151.578,325.388 151.306,325.953 150.588 C 326.354 150.078,326.791 149.155,326.923 148.537 C 327.330 146.638,327.603 146.631,327.712 148.517 C 327.796 149.961,327.953 150.357,328.501 150.500 M84.475 152.008 C 85.297 153.632,85.154 158.256,84.219 160.322 C 82.798 163.459,80.365 161.914,80.023 157.659 C 79.524 151.442,82.365 147.836,84.475 152.008 M123.905 151.406 C 124.169 151.915,124.493 153.059,124.627 153.948 L 124.869 155.563 123.258 155.805 C 121.720 156.036,121.648 156.098,121.648 157.200 C 121.648 159.984,122.792 161.311,123.865 159.772 C 124.394 159.014,124.416 159.011,124.434 159.694 C 124.465 160.900,123.444 162.016,122.420 161.896 C 120.984 161.726,120.176 159.980,120.134 156.957 C 120.058 151.558,122.287 148.277,123.905 151.406 M131.814 155.653 C 131.814 158.809,131.955 160.957,132.170 161.090 C 132.828 161.496,132.135 161.963,130.876 161.963 C 129.734 161.963,129.652 161.897,129.908 161.174 C 130.502 159.491,130.493 152.499,129.896 151.587 C 129.316 150.702,129.299 150.728,130.762 150.294 C 131.734 150.007,131.814 150.416,131.814 155.653 M136.714 150.989 C 137.190 151.594,137.420 152.320,137.353 153.005 C 137.210 154.465,136.293 154.406,135.988 152.918 C 135.482 150.444,134.935 150.974,134.707 154.158 C 134.363 158.959,135.810 162.386,136.781 159.071 C 137.168 157.749,137.231 157.685,137.340 158.509 C 137.745 161.573,135.107 163.116,133.831 160.561 C 131.684 156.265,134.226 147.827,136.714 150.989 M141.202 150.590 C 141.935 151.103,141.981 151.388,141.981 155.459 C 141.981 159.197,142.072 159.894,142.652 160.610 L 143.324 161.437 143.570 160.461 C 143.705 159.924,143.752 157.449,143.675 154.961 C 143.544 150.750,143.580 150.425,144.198 150.263 C 144.650 150.145,144.920 150.306,145.040 150.768 C 145.256 151.595,145.459 151.618,146.000 150.877 C 146.278 150.497,146.665 150.388,147.166 150.546 C 148.094 150.841,148.231 151.627,148.383 157.510 L 148.499 161.997 147.431 161.892 C 146.665 161.817,146.411 161.639,146.533 161.262 C 146.876 160.207,146.926 152.395,146.592 152.061 C 145.662 151.131,144.798 158.979,145.591 161.154 C 145.989 162.246,139.016 162.217,138.405 161.124 C 137.723 159.906,138.269 157.208,139.473 155.835 C 140.559 154.599,141.128 151.446,140.265 151.446 C 139.886 151.446,139.527 152.312,139.527 153.228 C 139.527 153.597,139.290 153.900,139.001 153.900 C 138.102 153.900,138.305 151.255,139.254 150.590 C 139.683 150.289,140.121 150.044,140.228 150.044 C 140.335 150.044,140.773 150.289,141.202 150.590 M163.679 151.842 C 164.543 154.320,164.226 155.564,162.664 155.828 C 161.420 156.038,161.262 156.175,161.262 157.042 C 161.262 160.049,162.247 161.330,163.403 159.827 C 164.120 158.894,164.297 159.468,163.664 160.672 C 161.892 164.038,159.701 161.652,159.701 156.354 C 159.701 150.894,162.315 147.929,163.679 151.842 M179.084 152.221 C 179.867 155.221,179.778 155.543,178.089 155.828 C 176.697 156.063,176.687 156.077,176.687 157.635 C 176.687 160.172,177.643 161.306,178.636 159.948 C 179.261 159.093,179.642 159.623,179.117 160.619 C 177.458 163.767,174.934 161.320,174.934 156.563 C 174.934 151.157,177.976 147.974,179.084 152.221 M195.693 152.411 C 197.114 155.622,195.795 161.963,193.706 161.963 C 190.691 161.963,190.025 152.597,192.897 150.586 C 193.928 149.864,194.826 150.450,195.693 152.411 M220.363 152.353 C 221.117 154.326,220.910 158.433,219.959 160.386 C 218.447 163.490,216.007 161.621,215.688 157.114 C 215.270 151.219,218.625 147.802,220.363 152.353 M229.244 151.393 C 229.431 151.741,229.688 152.821,229.817 153.794 L 230.052 155.562 228.394 155.810 L 226.736 156.059 226.972 157.872 C 227.290 160.302,228.011 161.047,228.945 159.909 C 229.831 158.827,229.935 159.960,229.063 161.204 C 227.390 163.594,225.418 161.012,225.417 156.430 C 225.416 151.273,227.624 148.366,229.244 151.393 M233.971 151.576 C 234.273 152.701,234.220 153.900,233.869 153.900 C 233.698 153.900,233.454 153.348,233.327 152.673 C 233.157 151.768,232.917 151.446,232.412 151.446 C 231.313 151.446,231.570 152.946,232.954 154.601 C 235.211 157.303,234.325 162.874,231.814 161.768 C 231.477 161.619,231.043 161.484,230.850 161.468 C 230.375 161.427,230.179 157.756,230.651 157.756 C 230.852 157.756,231.196 158.474,231.417 159.351 C 231.709 160.512,231.973 160.916,232.386 160.837 C 233.221 160.678,233.291 159.199,232.513 158.147 C 230.343 155.212,230.022 151.520,231.834 150.339 C 232.396 149.974,233.751 150.759,233.971 151.576 M238.470 151.236 C 238.817 151.756,238.809 153.900,238.460 153.900 C 238.307 153.900,238.031 153.388,237.846 152.761 C 237.661 152.131,237.237 151.572,236.897 151.509 C 235.897 151.323,236.155 152.760,237.405 154.338 C 239.681 157.212,238.894 162.873,236.372 161.770 C 236.034 161.622,235.640 161.526,235.495 161.557 C 235.351 161.588,235.249 160.706,235.269 159.597 L 235.306 157.581 235.710 158.881 C 236.182 160.398,236.768 161.087,237.305 160.755 C 237.997 160.327,237.702 158.968,236.589 157.454 C 234.976 155.260,234.757 151.971,236.134 150.595 C 236.706 150.023,237.874 150.343,238.470 151.236 M241.610 155.616 C 241.614 158.338,241.758 160.653,241.930 160.759 C 242.801 161.297,242.178 161.963,240.804 161.963 C 239.554 161.963,239.403 161.882,239.658 161.350 C 240.115 160.397,240.245 152.112,239.810 151.677 C 239.243 151.110,239.362 150.752,240.228 150.420 C 241.485 149.938,241.603 150.383,241.610 155.616 M247.415 151.706 C 248.380 153.179,248.262 158.496,247.221 160.473 C 245.477 163.785,242.953 161.288,242.947 156.246 C 242.941 151.096,245.386 148.610,247.415 151.706 M279.005 151.882 C 279.349 152.974,279.526 154.312,279.443 155.184 C 279.421 155.408,278.773 155.698,278.002 155.828 C 276.701 156.048,276.599 156.148,276.599 157.209 C 276.599 160.002,277.729 161.288,278.851 159.772 L 279.435 158.983 279.225 160.035 C 278.522 163.557,275.403 162.005,274.981 157.924 C 274.404 152.327,277.625 147.488,279.005 151.882 M288.479 150.877 C 289.639 152.113,289.982 155.653,288.941 155.653 C 286.931 155.653,286.490 156.165,286.802 158.138 C 287.184 160.556,287.574 160.912,288.689 159.864 C 289.687 158.927,289.721 158.972,289.185 160.511 C 288.456 162.602,286.252 162.404,285.471 160.177 C 283.828 155.491,286.129 148.377,288.479 150.877 M296.925 150.390 C 299.708 151.880,298.970 161.788,296.076 161.788 C 292.614 161.788,292.703 150.388,296.167 150.054 C 296.228 150.049,296.569 150.200,296.925 150.390 M301.287 150.307 C 301.433 150.451,301.972 150.570,302.485 150.570 C 303.875 150.570,304.712 153.139,304.511 156.791 C 304.326 160.146,303.509 161.796,302.045 161.772 L 301.073 161.755 301.222 164.576 C 301.303 166.128,301.493 167.673,301.643 168.011 C 301.879 168.541,301.715 168.624,300.438 168.624 C 299.151 168.624,298.999 168.545,299.261 168.011 C 299.748 167.018,299.836 151.813,299.359 151.238 C 299.040 150.853,299.128 150.683,299.785 150.420 C 300.841 149.997,300.966 149.988,301.287 150.307 M313.211 152.626 C 313.311 153.423,313.439 155.850,313.495 158.019 L 313.596 161.963 312.423 161.963 C 311.333 161.963,311.263 161.895,311.435 160.999 C 311.969 158.203,312.054 156.757,311.830 154.229 C 311.569 151.286,311.323 150.887,310.661 152.339 C 310.111 153.546,310.122 160.289,310.675 160.841 C 311.293 161.460,310.556 162.043,309.333 161.903 C 308.621 161.822,308.377 161.634,308.501 161.262 C 308.888 160.101,308.679 152.032,308.258 151.892 C 307.617 151.677,307.357 153.818,307.504 158.106 L 307.636 161.963 306.579 161.963 L 305.521 161.963 305.521 156.179 L 305.521 150.394 306.486 150.394 C 307.016 150.394,307.450 150.584,307.450 150.815 C 307.450 151.142,307.543 151.142,307.870 150.815 C 308.454 150.231,309.534 150.289,309.776 150.917 C 309.945 151.358,310.116 151.330,310.870 150.736 C 312.051 149.808,312.946 150.530,313.211 152.626 M318.664 152.463 C 319.390 155.076,319.202 155.582,317.408 155.852 L 315.797 156.093 316.040 157.713 C 316.457 160.492,317.133 161.194,318.085 159.834 C 318.678 158.988,319.060 159.358,318.666 160.398 C 317.331 163.923,314.763 161.783,314.522 156.943 C 314.234 151.180,317.366 147.791,318.664 152.463 M105.642 152.313 C 105.296 154.221,105.303 154.251,106.129 154.251 C 106.928 154.251,106.956 154.174,106.729 152.585 C 106.386 150.185,106.043 150.099,105.642 152.313 M126.928 151.183 L 126.951 151.972 127.268 151.183 C 127.917 149.568,129.485 150.614,129.296 152.536 C 129.167 153.858,128.471 154.265,128.138 153.213 C 128.011 152.814,127.761 152.578,127.582 152.689 C 127.134 152.966,127.163 160.812,127.613 161.090 C 128.270 161.496,127.578 161.963,126.322 161.963 C 125.208 161.963,125.098 161.880,125.269 161.174 C 125.727 159.291,125.855 155.984,125.563 153.550 C 125.212 150.614,125.258 150.394,126.226 150.394 C 126.691 150.394,126.913 150.644,126.928 151.183 M166.521 151.096 L 166.521 151.797 167.222 151.096 C 169.007 149.311,169.459 150.212,169.686 156.004 C 169.788 158.606,169.945 160.973,170.036 161.262 C 170.162 161.661,169.905 161.788,168.975 161.788 C 168.042 161.788,167.789 161.662,167.918 161.262 C 168.261 160.207,168.310 152.395,167.977 152.061 C 167.050 151.134,166.108 158.972,166.871 161.262 C 167.003 161.658,166.711 161.815,165.685 161.899 C 164.474 161.999,164.357 161.941,164.627 161.374 C 165.078 160.426,165.221 152.293,164.800 151.506 C 164.368 150.698,164.614 150.394,165.703 150.394 C 166.287 150.394,166.521 150.595,166.521 151.096 M181.956 151.008 C 181.966 151.592,181.984 151.592,182.324 151.008 C 183.031 149.795,184.408 150.713,184.394 152.387 C 184.383 153.758,183.748 154.146,183.031 153.220 L 182.368 152.365 182.118 155.038 C 181.869 157.694,181.983 159.666,182.473 161.174 C 182.704 161.887,182.614 161.963,181.548 161.963 L 180.368 161.964 180.490 157.045 C 180.574 153.612,180.486 151.974,180.196 151.626 C 179.639 150.954,180.044 150.394,181.090 150.394 C 181.667 150.394,181.949 150.594,181.956 151.008 M198.784 151.008 C 198.794 151.592,198.811 151.592,199.152 151.008 C 199.996 149.558,201.482 151.185,201.014 153.048 C 200.747 154.111,200.328 154.133,199.764 153.111 C 199.330 152.327,199.327 152.328,199.092 153.374 C 198.714 155.057,198.738 160.498,199.124 160.736 C 199.950 161.247,199.450 161.963,198.268 161.963 C 197.043 161.963,196.366 161.491,197.014 161.090 C 197.516 160.780,197.485 152.051,196.981 151.547 C 196.426 150.992,196.912 150.394,197.917 150.394 C 198.494 150.394,198.776 150.594,198.784 151.008 M213.157 151.008 C 213.167 151.592,213.185 151.592,213.525 151.008 C 214.231 149.795,215.609 150.713,215.595 152.387 C 215.584 153.740,215.001 154.103,214.276 153.208 L 213.604 152.379 213.374 154.980 C 213.247 156.411,213.301 158.528,213.494 159.684 C 213.686 160.841,213.844 161.827,213.845 161.876 C 213.847 161.924,213.335 161.963,212.708 161.963 L 211.569 161.964 211.690 157.045 C 211.780 153.408,211.695 151.984,211.362 151.584 C 210.994 151.140,211.004 150.985,211.416 150.724 C 212.244 150.200,213.146 150.347,213.157 151.008 M250.657 150.975 C 250.657 151.514,250.702 151.514,251.298 150.975 C 253.093 149.351,253.730 150.834,253.872 156.968 L 253.988 161.964 252.811 161.963 C 251.817 161.963,251.678 161.868,251.915 161.350 C 252.340 160.423,252.518 152.979,252.132 152.288 C 251.209 150.640,250.187 158.800,251.008 161.262 C 251.140 161.658,250.848 161.815,249.822 161.899 C 248.611 161.999,248.494 161.941,248.764 161.374 C 249.215 160.426,249.357 152.293,248.937 151.506 C 248.504 150.698,248.751 150.394,249.839 150.394 C 250.367 150.394,250.657 150.600,250.657 150.975 M281.920 151.748 C 281.761 153.275,282.589 156.815,283.008 156.396 C 283.190 156.214,283.384 154.841,283.439 153.344 C 283.529 150.887,283.610 150.613,284.276 150.511 C 285.080 150.389,285.203 150.787,284.668 151.786 C 284.479 152.140,283.993 154.378,283.588 156.758 C 282.453 163.437,282.540 163.434,281.144 156.832 C 280.579 154.159,280.021 151.634,279.905 151.222 C 279.715 150.551,279.818 150.481,280.863 150.563 C 281.948 150.649,282.025 150.735,281.920 151.748 M321.472 151.134 C 321.472 151.857,321.488 151.855,322.152 151.047 C 323.770 149.074,324.524 150.989,324.689 157.494 L 324.803 161.963 323.626 161.963 C 322.628 161.963,322.493 161.870,322.740 161.350 C 323.458 159.837,323.291 151.797,322.542 151.797 C 321.714 151.797,321.170 159.093,321.837 161.262 C 321.958 161.656,321.656 161.816,320.637 161.899 C 319.426 161.999,319.309 161.941,319.579 161.374 C 320.030 160.426,320.173 152.293,319.752 151.506 C 319.319 150.698,319.566 150.394,320.654 150.394 C 321.253 150.394,321.472 150.593,321.472 151.134 M81.901 151.986 C 81.537 152.934,81.657 159.044,82.059 160.100 C 83.051 162.697,84.030 155.752,83.128 152.524 C 82.839 151.490,82.199 151.209,81.901 151.986 M121.805 152.648 C 121.512 154.206,121.792 155.009,122.529 154.726 C 122.938 154.569,123.058 154.135,122.980 153.094 C 122.845 151.275,122.114 150.997,121.805 152.648 M161.487 152.221 C 161.022 153.957,161.210 154.900,161.981 154.698 C 162.581 154.541,162.683 154.275,162.595 153.093 C 162.477 151.508,161.817 150.988,161.487 152.221 M176.928 151.673 C 176.593 152.008,176.625 154.521,176.967 154.733 C 177.617 155.134,178.133 154.297,178.026 153.015 C 177.919 151.736,177.445 151.156,176.928 151.673 M193.032 151.986 C 192.590 153.136,192.795 159.700,193.293 160.382 C 194.098 161.483,194.571 159.987,194.531 156.465 C 194.485 152.339,193.745 150.128,193.032 151.986 M217.502 152.304 C 216.767 155.234,217.812 162.065,218.765 160.558 C 219.136 159.970,219.224 154.226,218.887 152.542 C 218.626 151.237,217.805 151.096,217.502 152.304 M227.411 151.709 C 226.984 152.458,226.834 154.569,227.192 154.791 C 227.959 155.265,228.638 154.085,228.382 152.723 C 228.158 151.527,227.755 151.106,227.411 151.709 M244.933 152.040 C 243.960 155.571,244.718 162.059,245.959 160.819 C 246.357 160.420,246.530 155.007,246.201 153.226 C 245.900 151.596,245.229 150.968,244.933 152.040 M276.824 152.221 C 276.516 153.371,276.550 154.952,276.883 154.952 C 277.850 154.952,278.400 154.006,278.102 152.856 C 277.731 151.424,277.119 151.120,276.824 152.221 M286.979 152.001 C 286.514 153.211,286.736 155.038,287.321 154.814 C 287.626 154.697,287.941 154.601,288.022 154.601 C 288.246 154.601,288.196 152.627,287.955 152.001 C 287.838 151.696,287.619 151.446,287.467 151.446 C 287.316 151.446,287.096 151.696,286.979 152.001 M295.401 152.235 C 294.813 154.429,295.328 160.552,296.124 160.817 C 296.962 161.097,297.402 155.434,296.766 152.540 C 296.487 151.267,295.707 151.093,295.401 152.235 M316.404 151.884 C 315.854 153.627,315.996 154.601,316.800 154.601 C 317.468 154.601,317.616 154.415,317.616 153.578 C 317.616 151.823,316.788 150.666,316.404 151.884 M113.348 152.235 C 112.906 152.931,112.802 160.313,113.226 160.911 C 114.044 162.067,114.637 160.302,114.631 156.725 C 114.625 152.314,114.213 150.873,113.348 152.235 M301.690 152.107 C 301.222 152.864,301.045 158.927,301.460 159.986 C 302.262 162.035,302.892 160.526,302.892 156.553 C 302.892 153.039,302.351 151.038,301.690 152.107 M256.705 156.594 C 256.186 157.500,256.116 160.210,256.610 160.210 C 257.090 160.210,257.388 158.820,257.255 157.197 C 257.150 155.910,257.117 155.874,256.705 156.594 M139.965 156.945 C 139.439 157.864,139.387 159.732,139.880 160.037 C 140.394 160.354,140.638 159.456,140.513 157.709 C 140.411 156.291,140.371 156.235,139.965 156.945 M208.256 184.140 C 209.134 184.958,213.928 189.492,218.910 194.216 C 223.891 198.940,229.641 204.372,231.687 206.288 C 236.616 210.903,246.116 219.864,250.482 224.016 C 252.410 225.850,255.410 228.690,257.149 230.327 C 258.888 231.965,261.888 234.803,263.817 236.635 C 265.745 238.466,269.840 242.331,272.916 245.223 C 282.169 253.923,284.306 255.940,287.982 259.442 C 289.916 261.285,292.365 263.601,293.423 264.588 C 294.482 265.575,295.270 266.448,295.176 266.530 C 293.085 268.329,287.660 270.655,286.926 270.067 C 286.477 269.707,282.212 265.863,277.448 261.525 C 268.621 253.486,265.229 250.411,252.900 239.270 C 249.064 235.804,245.846 232.876,245.749 232.765 C 245.653 232.653,243.839 231.002,241.718 229.095 C 239.597 227.189,236.835 224.674,235.580 223.507 C 234.325 222.340,227.627 216.258,220.694 209.991 C 213.761 203.725,206.427 197.073,204.395 195.210 L 200.701 191.823 200.604 199.768 L 200.507 207.713 202.182 209.232 C 203.831 210.727,207.512 214.155,217.878 223.850 C 220.771 226.555,226.450 231.832,230.500 235.577 C 234.549 239.321,237.940 242.476,238.037 242.588 C 238.133 242.700,240.500 244.908,243.295 247.493 C 246.091 250.079,249.722 253.466,251.363 255.019 C 253.005 256.573,255.213 258.637,256.271 259.606 C 259.617 262.673,263.645 266.427,268.835 271.317 C 271.602 273.924,274.165 276.267,274.531 276.523 C 275.680 277.328,275.280 277.893,272.480 279.419 C 270.986 280.234,269.109 281.279,268.310 281.742 C 267.113 282.434,266.773 282.502,266.382 282.127 C 265.889 281.655,262.608 278.730,248.379 266.083 C 243.751 261.970,239.170 257.881,238.199 256.997 C 237.228 256.113,235.887 254.911,235.219 254.326 C 234.552 253.741,231.801 251.296,229.106 248.892 C 226.412 246.489,218.918 239.812,212.454 234.056 L 200.701 223.589 200.603 231.426 L 200.505 239.264 202.538 241.192 C 205.567 244.064,209.448 247.662,213.128 251.008 C 214.930 252.647,216.579 254.153,216.791 254.355 C 217.004 254.557,218.361 255.804,219.807 257.126 C 222.121 259.242,225.355 262.229,233.846 270.092 C 235.108 271.261,237.701 273.637,239.610 275.372 C 243.021 278.475,244.372 279.720,251.008 285.877 C 255.091 289.666,255.127 289.247,250.482 291.915 C 245.781 294.614,247.136 295.058,238.861 288.106 C 225.081 276.527,201.338 256.727,200.936 256.479 C 200.627 256.288,200.526 258.177,200.526 264.112 L 200.526 271.998 203.944 274.959 C 205.824 276.588,213.317 283.073,220.596 289.370 C 227.875 295.667,233.830 300.940,233.830 301.087 C 233.830 301.328,230.093 303.560,225.189 306.247 L 223.385 307.236 220.457 304.780 C 210.201 296.178,200.910 288.519,200.733 288.519 C 200.619 288.519,200.526 292.034,200.526 296.331 L 200.526 304.144 203.243 306.618 C 204.737 307.979,207.178 310.178,208.668 311.505 C 210.158 312.832,211.262 314.025,211.122 314.156 C 210.777 314.479,201.774 319.645,200.711 320.129 C 199.798 320.545,201.216 321.285,181.245 309.973 C 177.677 307.952,172.314 304.925,169.325 303.246 C 166.337 301.567,163.260 299.828,162.489 299.382 C 161.718 298.935,159.351 297.593,157.230 296.400 C 155.110 295.207,150.929 292.848,147.940 291.159 C 144.952 289.469,140.613 287.025,138.300 285.727 C 135.986 284.429,132.436 282.421,130.412 281.264 C 125.764 278.609,114.383 272.164,97.108 262.404 C 89.684 258.210,81.876 253.797,79.755 252.599 C 77.634 251.400,74.991 249.909,73.883 249.285 L 71.867 248.152 71.867 215.399 L 71.867 182.647 139.264 182.651 L 206.661 182.654 208.256 184.140 M260.685 204.608 C 273.776 216.687,286.380 228.334,288.694 230.490 C 291.008 232.646,295.037 236.370,297.648 238.765 C 305.667 246.122,315.162 254.955,315.162 255.059 C 315.162 255.217,307.756 259.422,307.477 259.422 C 307.337 259.422,304.543 256.937,301.267 253.900 C 297.991 250.863,293.678 246.880,291.681 245.048 C 289.685 243.216,286.855 240.597,285.393 239.227 C 283.931 237.857,271.297 226.193,257.318 213.305 C 227.040 185.393,228.963 187.169,226.317 184.670 L 224.189 182.662 230.536 182.654 L 236.882 182.647 260.685 204.608 M284.003 192.200 C 289.697 197.454,297.340 204.514,300.988 207.888 C 304.636 211.262,308.397 214.733,309.345 215.600 C 310.294 216.468,311.478 217.551,311.977 218.007 C 312.476 218.463,316.472 222.163,320.859 226.230 L 328.834 233.624 328.834 240.551 C 328.834 250.426,329.564 250.399,319.194 240.907 C 315.916 237.907,311.814 234.163,310.079 232.588 C 308.344 231.012,304.084 227.131,300.613 223.963 C 294.418 218.307,284.933 209.682,278.352 203.720 C 276.521 202.060,273.996 199.745,272.743 198.574 C 271.490 197.403,267.783 194.018,264.505 191.053 C 261.227 188.087,257.835 184.985,256.968 184.158 L 255.390 182.655 264.520 182.651 L 273.650 182.647 284.003 192.200 M313.478 184.345 C 316.898 187.467,323.099 192.966,325.595 195.092 C 329.040 198.024,328.866 197.367,328.756 207.077 L 328.659 215.556 324.776 211.985 C 322.641 210.021,319.496 207.152,317.789 205.609 C 312.613 200.934,294.000 184.008,293.261 183.305 C 292.584 182.660,292.766 182.647,302.094 182.647 L 311.618 182.647 313.478 184.345 " stroke="none" fill="#f9fafa" fill-rule="evenodd"></path><path id="path1" d="M185.276 0.215 C 170.259 1.256,167.029 1.534,166.930 1.795 C 166.865 1.965,166.392 2.102,165.878 2.099 C 164.196 2.091,152.327 3.591,152.147 3.833 C 152.051 3.963,149.556 4.421,146.603 4.851 C 143.650 5.280,140.968 5.782,140.643 5.965 C 140.318 6.147,138.164 6.623,135.856 7.022 C 133.548 7.420,131.576 7.865,131.474 8.010 C 131.372 8.155,129.711 8.560,127.783 8.910 C 125.855 9.260,123.804 9.760,123.225 10.020 C 122.647 10.281,120.679 10.823,118.853 11.225 C 117.026 11.627,115.448 12.070,115.347 12.210 C 115.245 12.350,113.663 12.829,111.832 13.276 C 110.000 13.723,108.344 14.217,108.151 14.375 C 107.958 14.532,106.775 14.926,105.522 15.251 C 104.270 15.575,103.165 15.958,103.068 16.103 C 102.971 16.247,101.551 16.724,99.912 17.162 C 98.273 17.599,96.854 18.080,96.757 18.230 C 96.661 18.379,95.399 18.853,93.953 19.281 C 92.507 19.710,91.245 20.171,91.148 20.306 C 91.052 20.441,89.790 20.918,88.344 21.366 C 86.897 21.815,85.635 22.294,85.539 22.432 C 85.443 22.570,84.340 23.035,83.088 23.465 C 81.836 23.895,80.732 24.353,80.634 24.483 C 80.536 24.613,79.825 24.928,79.053 25.184 C 77.687 25.637,76.251 26.279,70.783 28.882 C 69.319 29.579,67.939 30.149,67.716 30.149 C 67.492 30.149,67.309 30.307,67.309 30.500 C 67.309 30.692,67.095 30.850,66.833 30.850 C 66.314 30.850,59.180 34.351,58.896 34.746 C 58.799 34.879,57.853 35.409,56.792 35.922 C 54.626 36.971,52.989 37.854,50.044 39.563 L 48.028 40.733 48.028 68.920 L 48.028 97.108 24.365 97.108 C 11.350 97.108,0.701 97.208,0.701 97.330 C 0.701 97.912,1.541 100.263,1.749 100.263 C 1.879 100.263,2.361 101.407,2.821 102.805 C 3.281 104.202,3.768 105.426,3.903 105.524 C 4.038 105.622,4.501 106.727,4.931 107.978 C 5.361 109.230,5.824 110.333,5.960 110.429 C 6.095 110.526,6.569 111.709,7.011 113.059 C 7.454 114.408,7.947 115.599,8.107 115.703 C 8.266 115.808,8.720 116.906,9.115 118.142 C 9.510 119.378,9.950 120.476,10.094 120.581 C 10.238 120.685,10.734 121.876,11.198 123.225 C 11.662 124.575,12.148 125.758,12.279 125.855 C 12.409 125.951,12.868 127.095,13.298 128.396 C 13.728 129.698,14.196 130.762,14.339 130.762 C 14.481 130.762,14.818 131.575,15.089 132.568 C 15.359 133.561,15.744 134.547,15.945 134.759 C 16.145 134.971,16.690 136.249,17.155 137.599 C 17.620 138.948,18.108 140.131,18.238 140.228 C 18.369 140.324,18.828 141.468,19.258 142.770 C 19.688 144.071,20.185 145.136,20.362 145.136 C 20.539 145.136,20.684 145.451,20.684 145.837 C 20.684 146.223,20.545 146.538,20.376 146.538 C 20.206 146.538,19.714 147.485,19.281 148.642 C 18.849 149.798,18.356 150.745,18.187 150.745 C 18.018 150.745,17.877 151.021,17.875 151.358 C 17.873 151.696,17.163 153.391,16.298 155.125 C 15.432 156.858,14.724 158.475,14.724 158.718 C 14.724 158.960,14.566 159.159,14.373 159.159 C 14.181 159.159,14.023 159.320,14.023 159.516 C 14.023 159.713,13.409 161.172,12.658 162.759 C 11.907 164.346,11.087 166.236,10.835 166.959 C 10.582 167.682,10.269 168.273,10.139 168.273 C 10.008 168.273,9.537 169.259,9.092 170.465 C 8.647 171.670,8.174 172.734,8.042 172.831 C 7.909 172.927,7.434 173.874,6.986 174.934 C 6.538 175.995,6.075 176.941,5.956 177.038 C 5.837 177.134,5.376 178.199,4.931 179.404 C 4.486 180.609,4.022 181.596,3.901 181.596 C 3.780 181.597,3.388 182.346,3.030 183.262 C 2.672 184.177,1.844 186.042,1.190 187.406 C 0.535 188.770,-0.000 190.229,-0.000 190.648 L 0.000 191.411 24.014 191.411 L 48.028 191.411 48.028 227.553 C 48.028 263.399,48.034 263.696,48.729 263.877 C 49.115 263.978,49.430 264.203,49.430 264.378 C 49.430 264.552,49.864 264.885,50.394 265.118 C 50.925 265.350,52.147 266.035,53.111 266.639 C 54.075 267.243,55.219 267.849,55.653 267.985 C 56.087 268.122,56.442 268.347,56.442 268.486 C 56.442 268.625,57.309 269.121,58.370 269.588 C 59.430 270.055,60.298 270.554,60.298 270.697 C 60.298 270.840,61.042 271.287,61.951 271.689 C 62.860 272.091,63.688 272.543,63.791 272.694 C 63.895 272.844,64.847 273.443,65.907 274.024 C 69.736 276.123,70.264 276.430,70.660 276.786 C 70.882 276.985,71.755 277.458,72.601 277.838 C 73.447 278.217,74.417 278.804,74.756 279.141 C 75.095 279.479,75.539 279.755,75.742 279.755 C 76.091 279.755,80.399 282.199,81.157 282.827 C 81.350 282.987,82.296 283.494,83.260 283.953 C 84.224 284.413,85.098 284.913,85.201 285.063 C 85.304 285.213,86.132 285.665,87.041 286.068 C 87.950 286.470,88.694 286.916,88.694 287.059 C 88.694 287.202,89.562 287.701,90.622 288.168 C 91.683 288.635,92.550 289.118,92.550 289.241 C 92.550 289.364,93.181 289.749,93.953 290.096 C 94.724 290.444,95.355 290.847,95.355 290.993 C 95.355 291.138,96.223 291.616,97.283 292.056 C 98.344 292.495,99.211 292.979,99.211 293.131 C 99.211 293.283,100.000 293.747,100.964 294.161 C 101.928 294.576,102.717 295.035,102.717 295.180 C 102.717 295.326,103.230 295.654,103.856 295.909 C 104.483 296.164,105.784 296.871,106.748 297.480 C 107.713 298.089,108.856 298.699,109.290 298.836 C 109.724 298.972,110.079 299.211,110.079 299.367 C 110.079 299.523,110.868 299.990,111.832 300.405 C 112.796 300.820,113.585 301.288,113.585 301.446 C 113.585 301.605,114.176 302.003,114.899 302.332 C 116.497 303.058,118.507 304.162,120.825 305.589 C 121.781 306.177,122.909 306.768,123.332 306.902 C 123.755 307.036,124.102 307.274,124.102 307.430 C 124.102 307.586,124.890 308.053,125.855 308.468 C 126.819 308.883,127.607 309.337,127.607 309.477 C 127.607 309.618,128.436 310.110,129.448 310.571 C 130.460 311.032,131.367 311.515,131.464 311.645 C 131.621 311.857,133.736 313.072,137.049 314.855 C 137.710 315.211,138.341 315.623,138.451 315.770 C 138.561 315.918,139.360 316.405,140.228 316.852 C 142.346 317.943,143.559 318.631,145.755 319.984 C 146.770 320.610,147.744 321.122,147.921 321.122 C 148.097 321.122,148.449 321.327,148.704 321.578 C 148.959 321.829,149.917 322.395,150.833 322.836 C 151.748 323.278,152.498 323.749,152.498 323.884 C 152.498 324.019,153.365 324.511,154.426 324.978 C 155.486 325.445,156.354 325.914,156.354 326.021 C 156.354 326.128,157.182 326.603,158.195 327.078 C 159.207 327.553,160.253 328.152,160.520 328.409 C 160.786 328.667,161.615 329.121,162.360 329.420 C 163.106 329.718,163.716 330.087,163.716 330.240 C 163.716 330.393,164.425 330.809,165.292 331.166 C 166.159 331.522,166.869 331.918,166.870 332.046 C 166.871 332.173,167.621 332.636,168.536 333.073 C 169.452 333.511,170.280 333.977,170.377 334.109 C 170.473 334.241,171.262 334.707,172.130 335.145 C 172.997 335.582,173.786 336.048,173.883 336.180 C 173.979 336.312,174.847 336.793,175.811 337.248 C 176.775 337.703,177.648 338.199,177.751 338.350 C 177.854 338.500,178.682 338.952,179.592 339.354 C 180.501 339.756,181.245 340.199,181.245 340.337 C 181.245 340.475,182.073 340.978,183.085 341.453 C 184.097 341.929,185.231 342.597,185.605 342.938 C 185.979 343.279,186.480 343.558,186.719 343.558 C 186.959 343.558,187.367 343.771,187.627 344.031 C 187.886 344.291,188.923 344.881,189.930 345.343 C 190.938 345.805,191.762 346.291,191.762 346.423 C 191.762 346.554,192.590 347.073,193.602 347.576 C 194.614 348.078,196.303 348.958,197.355 349.530 C 199.745 350.829,203.051 350.361,204.365 348.539 C 204.471 348.392,205.251 347.966,206.099 347.591 C 206.946 347.217,207.825 346.726,208.052 346.499 C 208.419 346.132,209.445 345.540,213.265 343.489 C 213.875 343.162,214.548 342.743,214.762 342.558 C 214.976 342.372,215.844 341.869,216.690 341.440 C 217.537 341.011,218.309 340.550,218.405 340.415 C 218.501 340.281,219.369 339.790,220.333 339.323 C 221.297 338.857,222.290 338.282,222.540 338.046 C 222.789 337.811,223.657 337.294,224.468 336.897 C 226.479 335.915,229.056 334.434,229.271 334.137 C 229.368 334.003,230.276 333.507,231.288 333.034 C 232.301 332.561,233.129 332.054,233.129 331.907 C 233.129 331.759,233.299 331.639,233.508 331.639 C 233.716 331.639,234.718 331.087,235.735 330.412 C 236.752 329.737,237.764 329.185,237.985 329.185 C 238.207 329.185,238.667 328.909,239.008 328.571 C 239.350 328.234,240.454 327.576,241.462 327.109 C 242.471 326.642,243.295 326.130,243.295 325.970 C 243.295 325.810,243.493 325.667,243.734 325.652 C 243.975 325.637,244.882 325.170,245.749 324.615 C 246.617 324.061,248.076 323.265,248.992 322.847 C 249.908 322.429,250.657 321.966,250.657 321.818 C 250.657 321.670,251.267 321.304,252.013 321.006 C 252.759 320.708,253.587 320.250,253.854 319.990 C 254.120 319.729,255.048 319.160,255.916 318.725 C 256.784 318.291,258.361 317.393,259.422 316.731 C 260.482 316.068,261.847 315.291,262.454 315.003 C 263.062 314.716,263.771 314.275,264.032 314.025 C 264.292 313.774,265.333 313.180,266.345 312.705 C 267.358 312.230,268.186 311.754,268.186 311.648 C 268.186 311.541,269.053 311.072,270.114 310.605 C 271.174 310.138,272.042 309.645,272.042 309.510 C 272.042 309.375,272.791 308.904,273.707 308.463 C 274.623 308.022,275.581 307.456,275.836 307.205 C 276.091 306.954,276.453 306.748,276.641 306.748 C 276.830 306.748,277.847 306.196,278.902 305.521 C 279.957 304.847,280.975 304.294,281.164 304.294 C 281.353 304.294,281.785 304.018,282.124 303.681 C 282.463 303.344,283.409 302.767,284.227 302.401 C 285.045 302.034,285.714 301.633,285.714 301.511 C 285.714 301.388,286.582 300.905,287.642 300.438 C 288.703 299.971,289.571 299.478,289.571 299.341 C 289.571 299.205,290.359 298.737,291.323 298.301 C 292.287 297.865,293.076 297.398,293.076 297.264 C 293.076 297.129,293.865 296.680,294.829 296.265 C 295.793 295.850,296.583 295.397,296.583 295.258 C 296.584 295.118,297.301 294.710,298.177 294.349 C 299.053 293.989,299.971 293.493,300.217 293.248 C 300.615 292.849,301.842 292.138,305.465 290.207 C 306.075 289.882,306.810 289.408,307.099 289.155 C 307.388 288.902,308.256 288.380,309.027 287.996 C 309.798 287.613,310.508 287.205,310.605 287.092 C 310.701 286.978,311.569 286.503,312.533 286.037 C 313.497 285.570,314.592 284.912,314.965 284.575 C 315.339 284.238,315.852 283.961,316.105 283.961 C 316.358 283.961,316.844 283.685,317.185 283.348 C 317.527 283.011,318.631 282.353,319.639 281.886 C 320.648 281.419,321.474 280.946,321.476 280.834 C 321.478 280.722,322.346 280.246,323.404 279.775 C 324.463 279.305,325.329 278.819,325.329 278.696 C 325.329 278.573,326.117 278.103,327.082 277.651 C 328.046 277.200,328.834 276.712,328.834 276.567 C 328.834 276.422,329.385 276.121,330.059 275.899 C 330.732 275.677,331.402 275.305,331.549 275.073 C 331.695 274.841,332.508 274.345,333.355 273.971 C 334.203 273.597,335.082 273.106,335.309 272.880 C 335.535 272.653,336.498 272.051,337.448 271.541 C 338.399 271.031,339.965 270.154,340.929 269.593 C 341.893 269.031,343.345 268.244,344.156 267.843 C 344.967 267.443,345.835 266.922,346.084 266.685 C 346.334 266.449,347.169 265.942,347.940 265.559 C 348.712 265.175,349.608 264.648,349.932 264.388 C 350.256 264.127,351.045 263.653,351.685 263.333 L 352.848 262.752 352.938 227.082 L 353.027 191.411 376.513 191.411 C 399.676 191.411,400.000 191.401,400.000 190.718 C 400.000 189.876,398.339 185.377,397.931 185.114 C 397.771 185.010,397.282 183.940,396.845 182.734 C 396.407 181.529,395.945 180.543,395.817 180.543 C 395.688 180.543,395.372 179.952,395.113 179.229 C 394.451 177.382,392.249 172.691,391.944 172.480 C 391.805 172.384,391.352 171.393,390.938 170.278 C 390.524 169.163,389.960 167.901,389.684 167.473 C 389.409 167.046,388.907 165.986,388.568 165.118 C 388.230 164.251,387.858 163.462,387.741 163.365 C 387.624 163.269,387.143 162.204,386.671 160.999 C 386.200 159.794,385.706 158.808,385.574 158.808 C 385.441 158.808,384.992 157.783,384.575 156.529 C 384.158 155.276,383.708 154.251,383.576 154.251 C 383.444 154.251,382.960 153.304,382.500 152.147 C 382.041 150.990,381.531 150.044,381.367 150.044 C 381.203 150.044,381.069 149.820,381.069 149.547 C 381.069 149.274,380.764 148.339,380.392 147.470 C 379.653 145.746,379.792 145.068,381.697 141.104 C 382.068 140.333,382.586 138.953,382.848 138.037 C 383.111 137.121,383.436 136.372,383.571 136.372 C 383.706 136.372,384.169 135.307,384.600 134.005 C 385.032 132.704,385.576 131.323,385.811 130.938 C 386.046 130.552,386.534 129.369,386.896 128.309 C 387.259 127.248,387.663 126.331,387.795 126.271 C 387.928 126.211,388.374 125.067,388.788 123.729 C 389.203 122.392,389.658 121.297,389.801 121.297 C 389.944 121.297,390.432 120.114,390.885 118.668 C 391.339 117.222,391.807 116.039,391.926 116.039 C 392.045 116.039,392.445 115.131,392.815 114.023 C 393.185 112.914,393.589 111.928,393.712 111.832 C 393.835 111.735,394.279 110.659,394.698 109.441 C 395.116 108.222,395.674 106.881,395.937 106.461 C 396.200 106.041,396.693 104.829,397.032 103.769 C 397.372 102.708,397.744 101.762,397.861 101.665 C 398.171 101.408,399.001 99.185,399.203 98.072 L 399.378 97.108 376.201 97.108 L 353.024 97.108 353.024 68.336 C 353.024 45.784,352.929 39.470,352.585 39.130 C 352.344 38.891,351.358 38.310,350.394 37.840 C 349.430 37.370,348.461 36.816,348.240 36.608 C 348.019 36.401,347.072 35.943,346.136 35.589 C 345.200 35.235,344.349 34.817,344.244 34.660 C 343.935 34.196,337.126 30.851,336.488 30.850 C 336.167 30.850,335.852 30.727,335.787 30.577 C 335.626 30.202,329.935 27.429,328.747 27.147 C 328.216 27.021,327.783 26.790,327.783 26.634 C 327.783 26.478,326.757 26.009,325.504 25.592 C 324.251 25.175,323.225 24.717,323.225 24.575 C 323.225 24.433,322.119 23.954,320.767 23.511 C 319.414 23.068,318.230 22.578,318.134 22.423 C 318.038 22.268,316.896 21.789,315.597 21.360 C 314.297 20.931,313.155 20.479,313.059 20.357 C 312.962 20.235,311.621 19.749,310.079 19.278 C 308.536 18.806,307.103 18.257,306.894 18.057 C 306.684 17.857,305.343 17.393,303.914 17.027 C 302.484 16.660,301.236 16.256,301.139 16.128 C 300.916 15.833,297.495 14.724,296.808 14.724 C 296.523 14.724,296.237 14.591,296.173 14.429 C 296.109 14.267,294.715 13.778,293.076 13.341 C 291.437 12.905,289.939 12.426,289.746 12.278 C 289.553 12.130,287.818 11.638,285.890 11.186 C 283.961 10.733,282.305 10.267,282.209 10.150 C 282.112 10.034,280.298 9.562,278.177 9.102 C 276.056 8.642,274.242 8.165,274.145 8.041 C 274.049 7.917,271.999 7.465,269.590 7.035 C 267.181 6.606,265.048 6.120,264.851 5.956 C 264.653 5.792,262.128 5.306,259.239 4.877 C 256.351 4.448,253.909 3.990,253.812 3.858 C 253.631 3.611,241.743 2.086,240.082 2.097 C 239.568 2.101,239.094 1.967,239.030 1.801 C 238.619 0.738,195.913 -0.522,185.276 0.215 M215.286 22.090 C 248.012 23.715,282.862 31.802,309.728 44.004 C 310.307 44.267,312.436 45.215,314.461 46.110 C 320.104 48.607,334.602 55.933,335.758 56.873 C 336.249 57.272,336.418 250.490,335.928 251.212 C 335.629 251.653,334.013 252.604,321.648 259.610 C 316.635 262.450,309.693 266.391,306.223 268.368 C 302.752 270.345,299.360 272.271,298.685 272.649 C 295.037 274.691,283.664 281.153,280.631 282.906 C 278.703 284.021,274.759 286.269,271.867 287.902 C 268.975 289.536,263.138 292.847,258.896 295.260 C 254.654 297.674,249.921 300.359,248.379 301.228 C 244.812 303.235,243.423 304.024,241.893 304.910 C 241.218 305.301,236.012 308.255,230.324 311.475 C 224.636 314.695,219.115 317.844,218.054 318.473 C 216.994 319.102,214.470 320.544,212.445 321.677 C 210.421 322.809,208.355 323.976,207.854 324.269 C 207.354 324.563,205.403 325.652,203.520 326.689 L 200.095 328.575 198.820 327.969 C 198.119 327.635,195.219 326.037,192.375 324.417 C 187.436 321.604,181.029 317.968,172.656 313.225 C 170.535 312.024,164.540 308.628,159.334 305.678 C 154.128 302.729,147.423 298.942,144.435 297.265 C 141.446 295.587,137.344 293.275,135.320 292.126 C 130.544 289.417,121.426 284.258,114.899 280.572 C 102.194 273.396,98.734 271.439,88.344 265.555 C 82.270 262.115,75.644 258.358,73.620 257.205 C 71.595 256.053,68.795 254.476,67.397 253.702 L 64.855 252.293 64.855 155.415 L 64.855 58.536 66.696 57.368 C 73.375 53.126,88.085 46.043,99.387 41.625 C 105.661 39.173,107.184 38.616,112.358 36.882 C 130.665 30.746,146.458 27.033,165.469 24.393 C 182.340 22.051,198.993 21.281,215.286 22.090 M194.917 28.822 C 194.917 28.919,196.121 30.007,197.592 31.239 L 200.268 33.479 200.046 36.985 C 199.924 38.913,199.725 42.226,199.603 44.347 C 199.297 49.679,199.469 49.603,195.372 46.211 C 193.435 44.608,189.445 41.323,186.505 38.913 C 183.564 36.503,179.955 33.539,178.485 32.326 C 176.088 30.350,175.683 30.140,174.584 30.296 C 173.909 30.392,171.621 30.655,169.500 30.882 C 167.379 31.109,165.524 31.401,165.378 31.531 C 165.105 31.774,166.310 32.977,187.857 53.992 L 200.253 66.082 200.039 69.588 C 199.921 71.516,199.725 74.829,199.603 76.950 C 199.481 79.071,199.281 80.998,199.158 81.232 C 198.944 81.639,196.536 79.560,188.752 72.250 C 187.194 70.786,184.117 67.923,181.916 65.888 C 167.670 52.716,162.197 47.641,160.035 45.602 C 149.564 35.727,148.375 34.706,147.348 34.706 C 146.198 34.706,140.545 36.051,140.147 36.420 C 140.006 36.550,150.378 47.138,163.197 59.949 C 184.562 81.301,186.503 83.336,186.503 84.390 L 186.503 85.539 257.673 85.539 L 328.843 85.539 328.751 73.233 L 328.659 60.927 323.751 58.417 C 302.765 47.682,276.897 38.389,257.318 34.550 C 255.679 34.229,253.313 33.742,252.060 33.468 C 247.948 32.569,236.573 30.900,230.675 30.331 C 227.493 30.024,223.471 29.612,221.735 29.415 C 218.411 29.037,194.917 28.518,194.917 28.822 M118.230 42.324 C 115.482 43.224,113.234 44.050,113.234 44.160 C 113.234 44.270,122.508 53.625,133.842 64.950 L 154.451 85.539 162.589 85.539 C 167.065 85.539,170.727 85.412,170.727 85.257 C 170.727 85.014,168.207 82.565,160.386 75.204 C 159.422 74.296,157.450 72.417,156.004 71.027 C 154.557 69.637,150.061 65.361,146.012 61.527 C 138.860 54.752,135.064 51.122,127.762 44.071 C 123.651 40.102,124.529 40.263,118.230 42.324 M94.128 51.416 C 92.200 52.284,90.346 53.079,90.009 53.182 C 88.875 53.527,89.347 54.042,105.234 69.814 L 121.073 85.539 128.564 85.539 C 134.569 85.539,136.000 85.450,135.776 85.090 C 135.621 84.843,132.261 81.578,128.309 77.834 C 117.526 67.623,115.555 65.747,110.961 61.336 C 100.724 51.507,98.822 49.783,98.246 49.808 C 97.909 49.824,96.056 50.547,94.128 51.416 M73.707 61.386 L 71.867 62.459 71.867 73.999 L 71.867 85.539 86.941 85.539 C 101.793 85.539,102.842 85.458,101.363 84.420 C 101.004 84.168,95.921 79.387,90.068 73.795 C 76.363 60.703,75.931 60.297,75.723 60.306 C 75.627 60.310,74.720 60.796,73.707 61.386 M153.090 101.905 C 151.674 104.762,149.446 109.623,148.139 112.708 C 141.278 128.898,140.505 130.119,136.610 130.933 C 133.949 131.488,136.260 131.865,142.690 131.925 C 149.619 131.990,151.330 131.672,148.045 130.929 C 143.514 129.903,143.281 128.656,146.263 121.385 L 147.305 118.843 154.395 118.843 L 161.485 118.843 162.598 121.560 C 165.873 129.557,165.797 130.452,161.802 130.951 C 157.356 131.507,160.195 131.917,168.729 131.953 C 177.162 131.989,179.929 131.609,175.915 130.967 C 172.625 130.441,171.294 128.542,167.044 118.317 C 164.253 111.601,161.062 104.483,159.188 100.789 C 156.410 95.315,156.351 95.326,153.090 101.905 M194.790 97.463 C 185.335 99.862,180.368 105.904,180.368 115.005 L 180.368 119.756 181.663 122.367 C 186.498 132.120,201.173 135.757,210.803 129.591 C 213.204 128.054,216.371 124.583,216.232 123.643 C 216.046 122.389,215.370 122.624,214.109 124.379 C 203.177 139.595,181.085 124.930,188.172 107.161 C 192.813 95.526,207.451 95.338,213.278 106.838 C 214.982 110.200,215.395 109.481,215.129 103.622 C 214.820 96.819,214.669 96.525,212.544 98.585 C 211.435 99.659,211.329 99.689,210.248 99.245 C 204.598 96.919,199.327 96.311,194.790 97.463 M259.616 97.427 C 259.284 97.965,259.699 98.510,260.442 98.510 C 264.389 98.510,264.947 100.996,264.377 116.039 C 263.869 129.431,263.635 130.112,259.282 130.833 C 253.404 131.807,258.267 132.153,279.579 132.276 C 295.781 132.370,305.695 120.492,299.640 108.240 C 295.569 100.003,288.736 97.461,270.704 97.475 C 266.016 97.479,261.656 97.383,261.016 97.263 C 260.322 97.133,259.757 97.199,259.616 97.427 M220.585 97.862 C 220.659 98.084,221.493 98.463,222.440 98.703 C 224.611 99.254,225.406 100.208,225.452 102.318 C 225.583 108.367,225.435 126.458,225.246 127.579 C 224.967 129.229,224.212 129.973,222.220 130.561 C 218.804 131.570,220.172 131.831,228.365 131.733 C 236.014 131.642,238.324 131.276,234.916 130.694 C 231.388 130.091,230.462 127.066,231.177 118.480 L 231.425 115.504 236.046 115.474 C 245.770 115.410,251.250 113.486,252.908 109.553 C 255.187 104.149,251.946 99.259,245.234 97.975 C 241.754 97.309,220.368 97.211,220.585 97.862 M92.284 98.238 C 92.363 98.474,92.918 98.768,93.518 98.890 C 95.630 99.322,97.943 101.413,99.496 104.294 C 100.335 105.853,100.598 126.128,99.803 128.030 C 99.145 129.605,97.945 130.424,95.982 130.641 C 93.571 130.906,92.858 131.111,93.083 131.474 C 93.422 132.022,110.174 131.925,109.992 131.376 C 109.912 131.135,109.042 130.838,108.059 130.716 C 104.855 130.319,103.289 128.731,102.746 125.329 C 102.289 122.463,101.786 105.872,102.157 105.872 C 102.295 105.872,108.236 111.670,115.359 118.755 C 129.157 132.483,129.687 132.903,129.750 130.173 C 129.771 129.244,129.891 122.726,130.016 115.688 C 130.293 100.107,130.323 100.013,135.210 99.037 C 136.251 98.829,137.056 98.507,137.000 98.322 C 136.875 97.910,121.132 97.856,120.723 98.266 C 120.290 98.700,121.334 99.199,122.699 99.212 C 124.589 99.229,126.606 100.544,127.520 102.354 C 128.338 103.976,128.791 122.360,128.024 122.834 C 127.867 122.931,122.070 117.340,115.142 110.409 L 102.545 97.809 97.343 97.809 C 93.396 97.809,92.176 97.912,92.284 98.238 M243.562 99.783 C 247.071 101.537,248.215 104.641,246.774 108.494 C 245.154 112.822,242.957 113.991,236.021 114.216 L 231.376 114.367 231.376 106.635 L 231.376 98.903 232.691 98.743 C 236.509 98.277,241.507 98.755,243.562 99.783 M283.291 99.832 C 294.692 103.932,297.989 117.592,289.730 126.512 C 284.717 131.926,272.971 132.943,270.368 128.187 C 269.361 126.346,270.028 100.644,271.119 99.257 C 271.724 98.488,280.737 98.914,283.291 99.832 M154.952 103.779 C 154.952 103.977,155.487 105.278,156.142 106.671 C 159.309 113.407,160.561 116.264,160.561 116.757 C 160.561 116.912,157.801 117.011,154.427 116.977 C 150.341 116.936,148.293 116.790,148.292 116.540 C 148.288 115.305,153.920 103.432,154.514 103.424 C 154.755 103.421,154.952 103.580,154.952 103.779 M48.028 144.435 L 48.028 183.699 29.974 183.699 C 20.044 183.699,11.919 183.649,11.919 183.589 C 11.919 183.529,12.215 182.858,12.576 182.099 C 12.937 181.340,13.442 180.127,13.698 179.404 C 13.954 178.681,14.272 178.089,14.405 178.089 C 14.538 178.089,15.009 177.064,15.451 175.811 C 15.894 174.557,16.365 173.532,16.499 173.532 C 16.633 173.532,17.106 172.546,17.551 171.341 C 17.996 170.136,18.461 169.071,18.585 168.975 C 18.708 168.878,19.181 167.892,19.635 166.784 C 20.090 165.675,20.569 164.768,20.700 164.768 C 20.831 164.768,21.211 163.900,21.545 162.840 C 21.878 161.779,22.284 160.911,22.445 160.911 C 22.607 160.911,22.848 160.557,22.981 160.123 C 23.258 159.213,24.393 156.671,26.308 152.673 C 27.046 151.131,27.850 149.277,28.094 148.554 C 28.338 147.831,28.663 147.239,28.817 147.239 C 28.971 147.239,29.097 146.687,29.097 146.012 C 29.097 145.337,28.968 144.785,28.811 144.785 C 28.653 144.785,28.162 143.681,27.720 142.331 C 27.277 140.982,26.814 139.877,26.692 139.876 C 26.569 139.875,26.091 138.691,25.631 137.246 C 25.171 135.801,24.683 134.619,24.547 134.619 C 24.412 134.619,24.105 133.948,23.865 133.129 C 23.626 132.309,22.970 130.653,22.408 129.447 C 21.845 128.241,21.385 127.030,21.385 126.755 C 21.385 126.480,21.186 126.047,20.943 125.792 C 20.701 125.537,20.130 124.224,19.675 122.875 C 19.220 121.525,18.732 120.342,18.590 120.245 C 18.449 120.149,17.971 118.966,17.528 117.616 C 17.086 116.266,16.611 115.083,16.474 114.987 C 16.337 114.890,15.867 113.786,15.430 112.533 C 14.993 111.280,14.512 110.096,14.361 109.904 C 14.133 109.611,12.621 105.586,12.621 105.271 C 12.621 105.216,20.587 105.171,30.324 105.171 L 48.028 105.171 48.028 144.435 M387.379 105.446 C 387.379 105.893,385.937 109.873,385.637 110.254 C 385.485 110.447,385.000 111.630,384.558 112.883 C 384.117 114.137,383.623 115.337,383.462 115.551 C 383.301 115.765,382.868 116.790,382.500 117.830 C 382.133 118.869,381.525 120.351,381.150 121.122 C 380.775 121.893,380.254 123.273,379.991 124.189 C 379.729 125.105,379.403 125.855,379.268 125.855 C 379.133 125.855,378.671 126.919,378.241 128.221 C 377.811 129.522,377.353 130.666,377.222 130.762 C 377.091 130.859,376.604 132.042,376.138 133.392 C 375.673 134.741,375.129 136.019,374.928 136.231 C 374.728 136.443,374.343 137.429,374.072 138.422 C 373.802 139.415,373.464 140.228,373.322 140.228 C 373.180 140.228,372.715 141.293,372.290 142.594 C 371.865 143.896,371.379 145.110,371.210 145.294 C 370.790 145.749,370.821 146.889,371.253 146.889 C 371.446 146.889,371.604 147.112,371.604 147.385 C 371.604 148.026,372.962 151.200,373.338 151.439 C 373.496 151.539,373.891 152.407,374.215 153.368 C 374.540 154.329,374.924 155.196,375.067 155.296 C 375.211 155.396,375.692 156.385,376.136 157.493 C 376.580 158.602,377.083 159.509,377.254 159.509 C 377.424 159.509,377.564 159.725,377.564 159.988 C 377.564 160.667,379.034 164.156,379.539 164.677 C 379.771 164.916,380.151 165.705,380.382 166.430 C 380.614 167.155,381.079 168.221,381.417 168.799 C 381.754 169.378,382.308 170.600,382.649 171.516 C 382.989 172.432,383.404 173.181,383.571 173.181 C 383.737 173.181,383.874 173.398,383.874 173.663 C 383.874 174.252,385.276 177.496,385.635 177.739 C 385.778 177.835,386.161 178.703,386.487 179.667 C 386.813 180.631,387.397 181.933,387.784 182.559 L 388.488 183.699 370.756 183.699 L 353.024 183.699 353.024 144.435 L 353.024 105.171 370.202 105.171 C 379.649 105.171,387.379 105.295,387.379 105.446 M95.061 144.007 C 94.347 144.124,94.279 144.262,94.535 145.077 C 94.896 146.227,94.926 158.006,94.573 160.298 L 94.317 161.963 95.449 161.963 L 96.582 161.963 96.464 157.844 C 96.349 153.787,96.684 151.797,97.483 151.797 C 97.759 151.797,97.839 153.294,97.754 156.880 L 97.634 161.964 98.811 161.963 C 99.806 161.963,99.944 161.869,99.703 161.350 C 99.547 161.012,99.332 158.606,99.227 156.004 C 99.003 150.468,98.425 149.217,96.827 150.815 C 96.500 151.142,96.407 150.446,96.407 147.681 C 96.407 143.929,96.358 143.795,95.061 144.007 M189.527 144.386 C 188.777 145.215,188.256 147.018,188.256 148.787 C 188.256 149.581,188.008 150.438,187.671 150.811 C 187.124 151.415,187.125 151.486,187.693 151.902 C 188.342 152.376,188.386 159.378,187.752 161.174 C 187.492 161.910,187.571 161.963,188.916 161.963 C 190.319 161.963,190.913 161.295,190.009 160.736 C 189.396 160.358,189.559 152.260,190.184 152.020 C 190.881 151.753,190.869 150.394,190.169 150.394 C 189.722 150.394,189.645 149.958,189.730 147.881 C 189.839 145.233,190.455 144.299,190.836 146.204 C 191.111 147.578,191.897 147.407,192.043 145.942 C 192.228 144.088,190.669 143.124,189.527 144.386 M223.577 144.347 C 222.909 145.099,222.270 147.340,222.252 148.992 C 222.245 149.667,222.015 150.514,221.742 150.875 C 221.311 151.444,221.315 151.602,221.774 152.060 C 222.344 152.631,222.332 159.546,221.757 161.174 C 221.497 161.910,221.576 161.963,222.921 161.963 C 224.324 161.963,224.919 161.295,224.014 160.736 C 223.401 160.358,223.564 152.260,224.189 152.020 C 224.874 151.758,224.864 150.863,224.172 150.476 C 223.746 150.237,223.651 149.652,223.734 147.769 C 223.849 145.136,224.332 144.528,224.969 146.216 C 225.434 147.448,226.117 147.300,226.117 145.969 C 226.117 143.964,224.714 143.068,223.577 144.347 M106.434 144.472 C 106.192 145.233,104.895 153.044,104.462 156.354 C 104.247 157.993,103.845 159.792,103.569 160.352 C 102.852 161.807,102.923 161.963,104.294 161.963 C 105.537 161.963,105.897 161.427,105.153 160.683 C 104.179 159.709,104.926 155.835,106.110 155.720 C 107.197 155.615,107.231 155.655,107.455 157.298 C 107.581 158.225,107.750 159.228,107.831 159.528 C 107.912 159.827,107.746 160.379,107.462 160.755 C 106.602 161.892,106.756 161.934,111.687 161.909 C 116.404 161.884,116.447 161.877,116.164 161.135 C 115.256 158.761,116.178 150.179,117.153 151.921 C 117.476 152.498,117.420 160.231,117.086 161.262 C 116.956 161.662,117.209 161.788,118.142 161.788 C 119.072 161.788,119.329 161.661,119.204 161.262 C 119.113 160.973,118.955 158.572,118.853 155.927 C 118.645 150.533,118.171 149.274,116.811 150.505 C 116.003 151.237,115.551 151.250,114.977 150.558 C 114.582 150.081,114.438 150.108,113.707 150.794 C 112.898 151.554,112.883 151.555,112.883 150.855 C 112.883 150.281,112.710 150.174,112.002 150.310 C 110.935 150.514,110.563 151.019,111.091 151.547 C 111.504 151.960,111.654 159.702,111.268 160.708 C 110.551 162.576,109.552 160.076,108.687 154.251 C 107.451 145.928,106.829 143.230,106.434 144.472 M130.072 144.932 C 129.847 145.524,129.847 146.150,130.072 146.742 C 130.591 148.107,131.288 147.589,131.288 145.837 C 131.288 144.085,130.591 143.566,130.072 144.932 M154.703 144.613 C 150.264 147.722,152.434 164.733,156.897 161.809 C 158.035 161.064,159.733 157.156,158.781 157.473 C 158.533 157.556,158.158 158.134,157.948 158.759 C 156.445 163.224,154.441 159.755,154.432 152.673 C 154.423 145.225,156.488 142.507,157.809 148.230 C 158.402 150.801,158.808 150.478,158.808 147.435 C 158.808 145.098,158.398 143.738,158.027 144.849 C 157.928 145.148,157.645 145.098,157.043 144.676 C 156.004 143.949,155.665 143.939,154.703 144.613 M205.521 144.338 C 204.416 144.475,203.985 145.199,204.733 145.662 C 204.948 145.795,205.083 148.697,205.083 153.199 C 205.083 157.701,204.948 160.603,204.733 160.736 C 203.740 161.350,204.441 161.963,206.135 161.963 C 207.939 161.963,208.279 161.672,207.362 160.911 C 206.964 160.581,206.836 159.689,206.836 157.249 L 206.836 154.024 208.151 153.699 C 211.235 152.937,211.790 146.084,208.889 144.584 C 207.927 144.086,207.688 144.069,205.521 144.338 M239.934 144.961 C 239.602 146.281,240.050 147.658,240.766 147.522 C 241.432 147.395,241.714 146.218,241.390 144.925 C 241.113 143.824,240.213 143.846,239.934 144.961 M260.386 144.326 C 259.719 144.500,259.559 145.313,260.123 145.662 C 260.611 145.963,260.596 160.794,260.107 161.096 C 259.058 161.745,258.720 160.495,258.720 155.961 C 258.720 151.248,258.333 150.044,256.818 150.044 C 256.028 150.044,254.819 151.831,254.935 152.826 C 255.100 154.234,256.194 154.199,256.330 152.782 C 256.480 151.228,257.116 151.301,257.249 152.887 C 257.326 153.815,257.130 154.424,256.512 155.166 C 255.178 156.769,254.864 157.588,254.864 159.465 C 254.864 161.677,255.006 161.757,259.060 161.841 C 262.727 161.917,263.175 161.808,262.506 161.002 C 262.170 160.597,262.018 158.311,261.926 152.269 C 261.837 146.398,261.688 144.096,261.400 144.125 C 261.180 144.147,260.723 144.238,260.386 144.326 M266.216 144.502 C 266.126 144.647,266.308 145.155,266.620 145.631 C 267.356 146.754,267.265 160.577,266.521 160.824 C 266.280 160.904,266.082 161.193,266.082 161.467 C 266.082 161.990,270.300 162.206,271.502 161.745 C 274.876 160.450,274.827 146.430,271.444 144.947 C 270.525 144.544,266.406 144.194,266.216 144.502 M290.458 144.559 C 289.848 145.004,289.844 145.083,290.391 145.864 C 291.204 147.024,291.261 159.642,290.459 160.787 C 289.804 161.723,290.065 161.963,291.732 161.963 C 293.198 161.963,293.317 161.785,292.539 160.757 C 292.122 160.205,292.025 158.568,292.025 152.080 C 292.025 143.641,291.983 143.443,290.458 144.559 M71.516 144.621 C 71.516 144.724,71.845 145.783,72.247 146.976 C 73.231 149.898,73.148 159.691,72.130 160.815 C 71.226 161.813,71.353 161.963,73.094 161.963 C 74.823 161.963,74.959 161.811,74.088 160.848 C 73.439 160.130,72.968 153.734,73.431 151.911 C 73.651 151.043,73.891 151.485,75.362 155.478 C 78.188 163.147,77.977 163.243,78.177 154.199 C 78.330 147.281,78.431 146.172,78.967 145.582 C 79.748 144.719,79.451 144.435,77.768 144.435 C 76.333 144.435,76.026 144.942,77.020 145.670 C 77.517 146.033,77.636 146.863,77.733 150.616 C 77.871 155.960,77.784 155.902,75.182 148.904 C 73.584 144.610,73.480 144.435,72.518 144.435 C 71.967 144.435,71.516 144.519,71.516 144.621 M208.283 146.066 C 208.982 146.909,208.873 150.785,208.118 151.938 C 207.077 153.526,206.836 153.005,206.836 149.167 C 206.836 145.338,207.139 144.688,208.283 146.066 M271.080 147.152 C 273.092 151.612,271.865 161.726,269.426 160.790 C 268.457 160.418,268.634 145.486,269.608 145.486 C 270.129 145.486,270.537 145.949,271.080 147.152 M91.715 148.031 C 91.262 150.052,90.239 151.188,89.355 150.649 C 88.762 150.287,88.572 150.326,88.147 150.900 C 87.708 151.492,87.642 151.503,87.642 150.987 C 87.642 150.339,86.728 150.208,85.893 150.736 C 85.476 150.999,85.458 151.155,85.805 151.502 C 86.351 152.047,86.422 160.757,85.884 161.090 C 85.227 161.496,85.919 161.963,87.178 161.963 C 88.315 161.963,88.402 161.894,88.164 161.174 C 87.292 158.542,87.663 151.709,88.602 153.111 C 89.312 154.171,89.645 154.105,89.921 152.848 C 90.414 150.602,90.798 151.974,90.798 155.987 C 90.798 161.449,91.630 163.184,93.402 161.412 C 94.126 160.688,94.106 160.076,93.367 160.360 C 92.423 160.722,92.211 159.910,92.205 155.907 C 92.200 152.198,92.216 152.124,93.076 151.797 C 94.188 151.374,94.196 150.820,93.096 150.402 C 92.379 150.129,92.221 149.802,92.125 148.395 L 92.010 146.713 91.715 148.031 M172.414 147.239 C 172.290 147.528,172.085 148.238,171.958 148.817 C 171.831 149.395,171.385 150.235,170.967 150.683 C 170.259 151.441,170.248 151.522,170.817 151.840 C 171.343 152.134,171.429 152.742,171.429 156.173 C 171.429 160.752,171.762 162.067,172.879 161.900 C 174.033 161.727,174.965 160.171,173.840 160.294 C 172.625 160.427,172.312 152.217,173.521 151.901 C 174.453 151.657,174.478 150.394,173.550 150.394 C 172.975 150.394,172.850 150.105,172.754 148.554 C 172.691 147.542,172.538 146.950,172.414 147.239 M327.386 147.064 C 327.264 147.257,327.056 147.920,326.923 148.537 C 326.791 149.155,326.354 150.078,325.953 150.588 C 325.388 151.306,325.325 151.578,325.674 151.794 C 325.998 151.994,326.139 153.307,326.176 156.451 C 326.235 161.566,327.080 163.227,328.764 161.543 C 329.389 160.918,329.274 160.165,328.571 160.283 C 328.019 160.375,327.948 159.956,327.859 156.091 C 327.765 151.976,327.791 151.797,328.473 151.797 C 329.392 151.797,329.415 150.739,328.501 150.500 C 327.953 150.357,327.796 149.961,327.712 148.517 C 327.654 147.525,327.508 146.871,327.386 147.064 M81.372 151.002 C 78.823 153.550,79.664 161.560,82.515 161.900 C 85.434 162.247,86.013 152.336,83.182 150.481 C 82.462 150.010,82.324 150.050,81.372 151.002 M121.738 150.581 C 120.119 151.715,119.523 158.379,120.838 160.638 C 122.015 162.662,124.494 162.011,124.434 159.694 C 124.416 159.011,124.394 159.014,123.865 159.772 C 122.792 161.311,121.648 159.984,121.648 157.200 C 121.648 156.098,121.720 156.036,123.258 155.805 L 124.869 155.563 124.627 153.948 C 124.176 150.945,123.066 149.651,121.738 150.581 M130.762 150.294 C 129.299 150.728,129.316 150.702,129.896 151.587 C 130.493 152.499,130.502 159.491,129.908 161.174 C 129.652 161.897,129.734 161.963,130.876 161.963 C 132.135 161.963,132.828 161.496,132.170 161.090 C 131.955 160.957,131.814 158.809,131.814 155.653 C 131.814 150.416,131.734 150.007,130.762 150.294 M134.522 150.658 C 133.070 152.263,132.654 158.207,133.831 160.561 C 135.107 163.116,137.745 161.573,137.340 158.509 C 137.231 157.685,137.168 157.749,136.781 159.071 C 135.810 162.386,134.363 158.959,134.707 154.158 C 134.935 150.974,135.482 150.444,135.988 152.918 C 136.293 154.406,137.210 154.465,137.353 153.005 C 137.552 150.969,135.660 149.400,134.522 150.658 M139.254 150.590 C 138.305 151.255,138.102 153.900,139.001 153.900 C 139.290 153.900,139.527 153.597,139.527 153.228 C 139.527 152.312,139.886 151.446,140.265 151.446 C 141.128 151.446,140.559 154.599,139.473 155.835 C 138.269 157.208,137.723 159.906,138.405 161.124 C 139.016 162.217,145.989 162.246,145.591 161.154 C 144.798 158.979,145.662 151.131,146.592 152.061 C 146.926 152.395,146.876 160.207,146.533 161.262 C 146.411 161.639,146.665 161.817,147.431 161.892 L 148.499 161.997 148.383 157.510 C 148.231 151.627,148.094 150.841,147.166 150.546 C 146.665 150.388,146.278 150.497,146.000 150.877 C 145.459 151.618,145.256 151.595,145.040 150.768 C 144.920 150.306,144.650 150.145,144.198 150.263 C 143.580 150.425,143.544 150.750,143.675 154.961 C 143.752 157.449,143.705 159.924,143.570 160.461 L 143.324 161.437 142.652 160.610 C 142.072 159.894,141.981 159.197,141.981 155.459 C 141.981 151.129,141.629 150.044,140.228 150.044 C 140.121 150.044,139.683 150.289,139.254 150.590 M161.516 150.442 C 158.856 151.930,159.025 161.976,161.709 161.958 C 162.686 161.951,163.151 161.645,163.664 160.672 C 164.297 159.468,164.120 158.894,163.403 159.827 C 162.247 161.330,161.262 160.049,161.262 157.042 C 161.262 156.175,161.420 156.038,162.664 155.828 C 164.010 155.601,164.067 155.538,164.067 154.272 C 164.067 151.545,162.839 149.701,161.516 150.442 M176.776 150.582 C 174.209 152.380,174.493 161.975,177.113 161.958 C 178.123 161.951,178.574 161.650,179.117 160.619 C 179.642 159.623,179.261 159.093,178.636 159.948 C 177.643 161.306,176.687 160.172,176.687 157.635 C 176.687 156.077,176.697 156.063,178.089 155.828 C 179.778 155.543,179.867 155.221,179.084 152.221 C 178.616 150.429,177.811 149.857,176.776 150.582 M192.897 150.586 C 190.025 152.597,190.691 161.963,193.706 161.963 C 195.795 161.963,197.114 155.622,195.693 152.411 C 194.826 150.450,193.928 149.864,192.897 150.586 M217.186 150.880 C 214.579 153.487,215.386 161.788,218.247 161.788 C 221.277 161.788,221.858 151.792,218.906 150.447 C 218.141 150.098,217.910 150.157,217.186 150.880 M227.054 150.496 C 225.409 151.736,224.769 158.036,226.030 160.561 C 227.082 162.665,229.623 162.087,229.623 159.743 C 229.623 159.151,229.551 159.169,228.945 159.909 C 228.011 161.047,227.290 160.302,226.972 157.872 L 226.736 156.059 228.394 155.810 L 230.052 155.562 229.817 153.794 C 229.443 150.970,228.274 149.575,227.054 150.496 M231.834 150.339 C 230.022 151.520,230.343 155.212,232.513 158.147 C 233.291 159.199,233.221 160.678,232.386 160.837 C 231.973 160.916,231.709 160.512,231.417 159.351 C 231.196 158.474,230.852 157.756,230.651 157.756 C 230.179 157.756,230.375 161.427,230.850 161.468 C 231.043 161.484,231.477 161.619,231.814 161.768 C 234.325 162.874,235.211 157.303,232.954 154.601 C 231.570 152.946,231.313 151.446,232.412 151.446 C 232.917 151.446,233.157 151.768,233.327 152.673 C 233.583 154.035,234.183 154.346,234.176 153.111 C 234.164 151.207,232.865 149.668,231.834 150.339 M236.134 150.595 C 234.757 151.971,234.976 155.260,236.589 157.454 C 237.702 158.968,237.997 160.327,237.305 160.755 C 236.768 161.087,236.182 160.398,235.710 158.881 L 235.306 157.581 235.269 159.597 C 235.249 160.706,235.351 161.588,235.495 161.557 C 235.640 161.526,236.034 161.622,236.372 161.770 C 238.894 162.873,239.681 157.212,237.405 154.338 C 236.155 152.760,235.897 151.323,236.897 151.509 C 237.237 151.572,237.661 152.131,237.846 152.761 C 238.277 154.225,238.739 154.224,238.733 152.761 C 238.724 150.846,237.174 149.555,236.134 150.595 M240.228 150.420 C 239.362 150.752,239.243 151.110,239.810 151.677 C 240.245 152.112,240.115 160.397,239.658 161.350 C 239.403 161.882,239.554 161.963,240.804 161.963 C 242.178 161.963,242.801 161.297,241.930 160.759 C 241.758 160.653,241.614 158.338,241.610 155.616 C 241.603 150.383,241.485 149.938,240.228 150.420 M244.604 150.744 C 242.598 152.321,242.375 159.228,244.261 161.350 C 246.136 163.459,247.999 160.711,248.017 155.813 C 248.033 151.390,246.561 149.204,244.604 150.744 M276.457 150.855 C 274.752 152.561,274.367 158.908,275.847 160.911 C 277.039 162.524,278.820 162.062,279.225 160.035 L 279.435 158.983 278.851 159.772 C 277.729 161.288,276.599 160.002,276.599 157.209 C 276.599 156.148,276.701 156.048,278.002 155.828 C 279.427 155.587,279.527 155.452,279.423 153.900 C 279.221 150.884,277.843 149.469,276.457 150.855 M286.468 150.864 C 284.512 152.946,284.499 160.504,286.449 161.718 C 287.412 162.318,288.763 161.722,289.185 160.511 C 289.721 158.972,289.687 158.927,288.689 159.864 C 287.574 160.912,287.184 160.556,286.802 158.138 C 286.490 156.165,286.931 155.653,288.941 155.653 C 289.982 155.653,289.639 152.113,288.479 150.877 C 287.512 149.849,287.423 149.848,286.468 150.864 M295.443 150.422 C 292.497 152.138,293.035 161.788,296.076 161.788 C 298.970 161.788,299.708 151.880,296.925 150.390 C 296.152 149.977,296.210 149.975,295.443 150.422 M299.785 150.420 C 299.128 150.683,299.040 150.853,299.359 151.238 C 299.836 151.813,299.748 167.018,299.261 168.011 C 298.999 168.545,299.151 168.624,300.438 168.624 C 301.715 168.624,301.879 168.541,301.643 168.011 C 301.493 167.673,301.303 166.128,301.222 164.576 L 301.073 161.755 302.045 161.772 C 303.509 161.796,304.326 160.146,304.511 156.791 C 304.712 153.139,303.875 150.570,302.485 150.570 C 301.972 150.570,301.433 150.451,301.287 150.307 C 300.966 149.988,300.841 149.997,299.785 150.420 M310.870 150.736 C 310.116 151.330,309.945 151.358,309.776 150.917 C 309.534 150.289,308.454 150.231,307.870 150.815 C 307.543 151.142,307.450 151.142,307.450 150.815 C 307.450 150.584,307.016 150.394,306.486 150.394 L 305.521 150.394 305.521 156.179 L 305.521 161.963 306.579 161.963 L 307.636 161.963 307.504 158.106 C 307.357 153.818,307.617 151.677,308.258 151.892 C 308.679 152.032,308.888 160.101,308.501 161.262 C 308.377 161.634,308.621 161.822,309.333 161.903 C 310.556 162.043,311.293 161.460,310.675 160.841 C 310.122 160.289,310.111 153.546,310.661 152.339 C 311.323 150.887,311.569 151.286,311.830 154.229 C 312.054 156.757,311.969 158.203,311.435 160.999 C 311.263 161.895,311.333 161.963,312.423 161.963 L 313.596 161.963 313.495 158.019 C 313.311 150.842,312.742 149.264,310.870 150.736 M316.311 150.576 C 313.752 152.368,313.905 161.533,316.499 161.902 C 317.417 162.033,318.271 161.440,318.666 160.398 C 319.060 159.358,318.678 158.988,318.085 159.834 C 317.133 161.194,316.457 160.492,316.040 157.713 L 315.797 156.093 317.408 155.852 C 319.202 155.582,319.390 155.076,318.664 152.463 C 318.150 150.614,317.267 149.906,316.311 150.576 M106.729 152.585 C 106.956 154.174,106.928 154.251,106.129 154.251 C 105.303 154.251,105.296 154.221,105.642 152.313 C 106.043 150.099,106.386 150.185,106.729 152.585 M125.397 150.657 C 125.315 150.802,125.390 152.103,125.563 153.550 C 125.855 155.984,125.727 159.291,125.269 161.174 C 125.098 161.880,125.208 161.963,126.322 161.963 C 127.578 161.963,128.270 161.496,127.613 161.090 C 127.163 160.812,127.134 152.966,127.582 152.689 C 127.761 152.578,128.011 152.814,128.138 153.213 C 128.471 154.265,129.167 153.858,129.296 152.536 C 129.485 150.614,127.917 149.568,127.268 151.183 L 126.951 151.972 126.928 151.183 C 126.907 150.418,125.755 150.023,125.397 150.657 M164.663 150.616 C 164.541 150.738,164.603 151.138,164.800 151.506 C 165.221 152.293,165.078 160.426,164.627 161.374 C 164.357 161.941,164.474 161.999,165.685 161.899 C 166.711 161.815,167.003 161.658,166.871 161.262 C 166.108 158.972,167.050 151.134,167.977 152.061 C 168.310 152.395,168.261 160.207,167.918 161.262 C 167.789 161.662,168.042 161.788,168.975 161.788 C 169.905 161.788,170.162 161.661,170.036 161.262 C 169.945 160.973,169.788 158.606,169.686 156.004 C 169.459 150.212,169.007 149.311,167.222 151.096 L 166.521 151.797 166.521 151.096 C 166.521 150.410,165.208 150.071,164.663 150.616 M180.008 150.760 C 179.884 150.962,179.968 151.351,180.196 151.626 C 180.486 151.974,180.574 153.612,180.490 157.045 L 180.368 161.964 181.548 161.963 C 182.614 161.963,182.704 161.887,182.473 161.174 C 181.983 159.666,181.869 157.694,182.118 155.038 L 182.368 152.365 183.031 153.220 C 183.748 154.146,184.383 153.758,184.394 152.387 C 184.408 150.713,183.031 149.795,182.324 151.008 C 181.984 151.592,181.966 151.592,181.956 151.008 C 181.944 150.324,180.399 150.128,180.008 150.760 M196.826 150.776 C 196.696 150.985,196.766 151.332,196.981 151.547 C 197.485 152.051,197.516 160.780,197.014 161.090 C 196.366 161.491,197.043 161.963,198.268 161.963 C 199.450 161.963,199.950 161.247,199.124 160.736 C 198.738 160.498,198.714 155.057,199.092 153.374 C 199.327 152.328,199.330 152.327,199.764 153.111 C 200.328 154.133,200.747 154.111,201.014 153.048 C 201.482 151.185,199.996 149.558,199.152 151.008 C 198.811 151.592,198.794 151.592,198.784 151.008 C 198.772 150.315,197.224 150.132,196.826 150.776 M211.416 150.724 C 211.004 150.985,210.994 151.140,211.362 151.584 C 211.695 151.984,211.780 153.408,211.690 157.045 L 211.569 161.964 212.708 161.963 C 213.335 161.963,213.847 161.924,213.845 161.876 C 213.844 161.827,213.686 160.841,213.494 159.684 C 213.301 158.528,213.247 156.411,213.374 154.980 L 213.604 152.379 214.276 153.208 C 215.001 154.103,215.584 153.740,215.595 152.387 C 215.609 150.713,214.231 149.795,213.525 151.008 C 213.185 151.592,213.167 151.592,213.157 151.008 C 213.146 150.347,212.244 150.200,211.416 150.724 M248.800 150.616 C 248.678 150.738,248.740 151.138,248.937 151.506 C 249.357 152.293,249.215 160.426,248.764 161.374 C 248.494 161.941,248.611 161.999,249.822 161.899 C 250.848 161.815,251.140 161.658,251.008 161.262 C 250.187 158.800,251.209 150.640,252.132 152.288 C 252.518 152.979,252.340 160.423,251.915 161.350 C 251.678 161.868,251.817 161.963,252.811 161.963 L 253.988 161.964 253.872 156.968 C 253.730 150.834,253.093 149.351,251.298 150.975 C 250.702 151.514,250.657 151.514,250.657 150.975 C 250.657 150.401,249.280 150.135,248.800 150.616 M279.905 151.222 C 280.021 151.634,280.579 154.159,281.144 156.832 C 282.540 163.434,282.453 163.437,283.588 156.758 C 283.993 154.378,284.479 152.140,284.668 151.786 C 285.203 150.787,285.080 150.389,284.276 150.511 C 283.610 150.613,283.529 150.887,283.439 153.344 C 283.384 154.841,283.190 156.214,283.008 156.396 C 282.589 156.815,281.761 153.275,281.920 151.748 C 282.025 150.735,281.948 150.649,280.863 150.563 C 279.818 150.481,279.715 150.551,279.905 151.222 M319.615 150.616 C 319.493 150.738,319.555 151.138,319.752 151.506 C 320.173 152.293,320.030 160.426,319.579 161.374 C 319.309 161.941,319.426 161.999,320.637 161.899 C 321.656 161.816,321.958 161.656,321.837 161.262 C 321.170 159.093,321.714 151.797,322.542 151.797 C 323.291 151.797,323.458 159.837,322.740 161.350 C 322.493 161.870,322.628 161.963,323.626 161.963 L 324.803 161.963 324.689 157.494 C 324.524 150.989,323.770 149.074,322.152 151.047 C 321.488 151.855,321.472 151.857,321.472 151.134 C 321.472 150.412,320.180 150.051,319.615 150.616 M83.128 152.524 C 84.030 155.752,83.051 162.697,82.059 160.100 C 81.657 159.044,81.537 152.934,81.901 151.986 C 82.199 151.209,82.839 151.490,83.128 152.524 M122.980 153.094 C 123.058 154.135,122.938 154.569,122.529 154.726 C 121.792 155.009,121.512 154.206,121.805 152.648 C 122.114 150.997,122.845 151.275,122.980 153.094 M162.595 153.093 C 162.683 154.275,162.581 154.541,161.981 154.698 C 161.389 154.853,161.263 154.722,161.267 153.955 C 161.280 151.332,162.409 150.600,162.595 153.093 M178.026 153.015 C 178.133 154.297,177.617 155.134,176.967 154.733 C 176.625 154.521,176.593 152.008,176.928 151.673 C 177.445 151.156,177.919 151.736,178.026 153.015 M194.259 152.524 C 194.656 153.946,194.592 159.507,194.169 160.297 C 193.368 161.793,192.813 160.092,192.813 156.140 C 192.813 151.617,193.515 149.862,194.259 152.524 M218.887 152.542 C 219.224 154.226,219.136 159.970,218.765 160.558 C 217.812 162.065,216.767 155.234,217.502 152.304 C 217.805 151.096,218.626 151.237,218.887 152.542 M228.382 152.723 C 228.554 153.637,228.475 154.147,228.104 154.517 C 227.289 155.333,226.766 154.721,227.029 153.259 C 227.437 150.995,228.015 150.766,228.382 152.723 M246.201 153.226 C 246.530 155.007,246.357 160.420,245.959 160.819 C 245.446 161.332,244.775 159.816,244.538 157.609 C 244.046 153.016,245.469 149.265,246.201 153.226 M278.102 152.856 C 278.352 153.820,278.293 154.128,277.788 154.497 C 276.865 155.172,276.599 155.058,276.604 153.988 C 276.617 151.410,277.545 150.709,278.102 152.856 M287.955 152.001 C 288.196 152.627,288.246 154.601,288.022 154.601 C 287.941 154.601,287.626 154.697,287.321 154.814 C 286.879 154.983,286.766 154.774,286.766 153.791 C 286.766 152.406,287.053 151.446,287.467 151.446 C 287.619 151.446,287.838 151.696,287.955 152.001 M296.766 152.540 C 297.402 155.434,296.962 161.097,296.124 160.817 C 294.871 160.400,294.819 151.446,296.069 151.446 C 296.321 151.446,296.634 151.938,296.766 152.540 M317.403 152.001 C 317.928 153.367,317.642 154.601,316.800 154.601 C 316.085 154.601,316.002 154.461,316.125 153.462 C 316.381 151.391,316.929 150.765,317.403 152.001 M114.415 152.585 C 115.260 155.738,114.304 162.434,113.226 160.911 C 112.802 160.313,112.906 152.931,113.348 152.235 C 113.769 151.572,114.180 151.707,114.415 152.585 M302.892 156.553 C 302.892 160.526,302.262 162.035,301.460 159.986 C 301.045 158.927,301.222 152.864,301.690 152.107 C 302.351 151.038,302.892 153.039,302.892 156.553 M257.161 159.388 C 256.828 160.712,256.266 160.333,256.266 158.785 C 256.266 156.665,257.102 155.323,257.255 157.197 C 257.317 157.950,257.274 158.936,257.161 159.388 M140.428 159.747 C 140.116 160.559,139.527 159.916,139.527 158.764 C 139.527 156.807,140.383 155.891,140.513 157.709 C 140.573 158.550,140.535 159.467,140.428 159.747 M71.867 215.399 L 71.867 248.152 73.883 249.285 C 74.991 249.909,77.634 251.400,79.755 252.599 C 81.876 253.797,89.684 258.210,97.108 262.404 C 114.383 272.164,125.764 278.609,130.412 281.264 C 132.436 282.421,135.986 284.429,138.300 285.727 C 140.613 287.025,144.952 289.469,147.940 291.159 C 150.929 292.848,155.110 295.207,157.230 296.400 C 159.351 297.593,161.718 298.935,162.489 299.382 C 163.260 299.828,166.337 301.567,169.325 303.246 C 172.314 304.925,177.677 307.952,181.245 309.973 C 201.216 321.285,199.798 320.545,200.711 320.129 C 201.774 319.645,210.777 314.479,211.122 314.156 C 211.262 314.025,210.158 312.832,208.668 311.505 C 207.178 310.178,204.737 307.979,203.243 306.618 L 200.526 304.144 200.526 296.331 C 200.526 292.034,200.619 288.519,200.733 288.519 C 200.910 288.519,210.201 296.178,220.457 304.780 L 223.385 307.236 225.189 306.247 C 230.093 303.560,233.830 301.328,233.830 301.087 C 233.830 300.940,227.875 295.667,220.596 289.370 C 213.317 283.073,205.824 276.588,203.944 274.959 L 200.526 271.998 200.526 264.112 C 200.526 258.177,200.627 256.288,200.936 256.479 C 201.338 256.727,225.081 276.527,238.861 288.106 C 247.136 295.058,245.781 294.614,250.482 291.915 C 255.127 289.247,255.091 289.666,251.008 285.877 C 244.372 279.720,243.021 278.475,239.610 275.372 C 237.701 273.637,235.108 271.261,233.846 270.092 C 225.355 262.229,222.121 259.242,219.807 257.126 C 218.361 255.804,217.004 254.557,216.791 254.355 C 216.579 254.153,214.930 252.647,213.128 251.008 C 209.448 247.662,205.567 244.064,202.538 241.192 L 200.505 239.264 200.603 231.426 L 200.701 223.589 212.454 234.056 C 218.918 239.812,226.412 246.489,229.106 248.892 C 231.801 251.296,234.552 253.741,235.219 254.326 C 235.887 254.911,237.228 256.113,238.199 256.997 C 239.170 257.881,243.751 261.970,248.379 266.083 C 262.608 278.730,265.889 281.655,266.382 282.127 C 266.773 282.502,267.113 282.434,268.310 281.742 C 269.109 281.279,270.986 280.234,272.480 279.419 C 275.280 277.893,275.680 277.328,274.531 276.523 C 274.165 276.267,271.602 273.924,268.835 271.317 C 263.645 266.427,259.617 262.673,256.271 259.606 C 255.213 258.637,253.005 256.573,251.363 255.019 C 249.722 253.466,246.091 250.079,243.295 247.493 C 240.500 244.908,238.133 242.700,238.037 242.588 C 237.940 242.476,234.549 239.321,230.500 235.577 C 226.450 231.832,220.771 226.555,217.878 223.850 C 207.512 214.155,203.831 210.727,202.182 209.232 L 200.507 207.713 200.604 199.768 L 200.701 191.823 204.395 195.210 C 206.427 197.073,213.761 203.725,220.694 209.991 C 227.627 216.258,234.325 222.340,235.580 223.507 C 236.835 224.674,239.597 227.189,241.718 229.095 C 243.839 231.002,245.653 232.653,245.749 232.765 C 245.846 232.876,249.064 235.804,252.900 239.270 C 265.229 250.411,268.621 253.486,277.448 261.525 C 282.212 265.863,286.477 269.707,286.926 270.067 C 287.660 270.655,293.085 268.329,295.176 266.530 C 295.270 266.448,294.482 265.575,293.423 264.588 C 292.365 263.601,289.916 261.285,287.982 259.442 C 284.306 255.940,282.169 253.923,272.916 245.223 C 269.840 242.331,265.745 238.466,263.817 236.635 C 261.888 234.803,258.888 231.965,257.149 230.327 C 255.410 228.690,252.410 225.850,250.482 224.016 C 246.116 219.864,236.616 210.903,231.687 206.288 C 229.641 204.372,223.891 198.940,218.910 194.216 C 213.928 189.492,209.134 184.958,208.256 184.140 L 206.661 182.654 139.264 182.651 L 71.867 182.647 71.867 215.399 M226.317 184.670 C 228.963 187.169,227.040 185.393,257.318 213.305 C 271.297 226.193,283.931 237.857,285.393 239.227 C 286.855 240.597,289.685 243.216,291.681 245.048 C 293.678 246.880,297.991 250.863,301.267 253.900 C 304.543 256.937,307.337 259.422,307.477 259.422 C 307.756 259.422,315.162 255.217,315.162 255.059 C 315.162 254.955,305.667 246.122,297.648 238.765 C 295.037 236.370,291.008 232.646,288.694 230.490 C 286.380 228.334,273.776 216.687,260.685 204.608 L 236.882 182.647 230.536 182.654 L 224.189 182.662 226.317 184.670 M256.968 184.158 C 257.835 184.985,261.227 188.087,264.505 191.053 C 267.783 194.018,271.490 197.403,272.743 198.574 C 273.996 199.745,276.521 202.060,278.352 203.720 C 284.933 209.682,294.418 218.307,300.613 223.963 C 304.084 227.131,308.344 231.012,310.079 232.588 C 311.814 234.163,315.916 237.907,319.194 240.907 C 329.564 250.399,328.834 250.426,328.834 240.551 L 328.834 233.624 320.859 226.230 C 316.472 222.163,312.476 218.463,311.977 218.007 C 311.478 217.551,310.294 216.468,309.345 215.600 C 308.397 214.733,304.636 211.262,300.988 207.888 C 297.340 204.514,289.697 197.454,284.003 192.200 L 273.650 182.647 264.520 182.651 L 255.390 182.655 256.968 184.158 M293.261 183.305 C 294.000 184.008,312.613 200.934,317.789 205.609 C 319.496 207.152,322.641 210.021,324.776 211.985 L 328.659 215.556 328.756 207.077 C 328.866 197.367,329.040 198.024,325.595 195.092 C 323.099 192.966,316.898 187.467,313.478 184.345 L 311.618 182.647 302.094 182.647 C 292.766 182.647,292.584 182.660,293.261 183.305 " stroke="none" fill="#04642c" fill-rule="evenodd"></path></g></svg>